<svg width="328" height="229" viewBox="0 0 328 229" fill="none" xmlns="http://www.w3.org/2000/svg">
<rect width="328" height="229" rx="40" fill="#CC484A" fill-opacity="0.9"/>
<path d="M148.55 81.35L136.25 101H134.96L132.62 81.35H132.5L128.66 95.96C128.6 96.2 128.55 96.43 128.51 96.65C128.47 96.87 128.45 97.08 128.45 97.28C128.45 98.12 128.68 98.75 129.14 99.17C129.62 99.57 130.25 99.78 131.03 99.8L130.67 101H122.39L122.72 99.8C123.66 99.8 124.5 99.47 125.24 98.81C125.98 98.13 126.49 97.28 126.77 96.26L130.28 83C130.58 81.9 130.73 81.08 130.73 80.54C130.73 79.92 130.5 79.53 130.04 79.37C129.6 79.19 128.84 79.1 127.76 79.1L128.09 77.9H135.29L137.42 95.78H137.54L148.85 77.9H155.18L154.85 79.1C154.27 79.1 153.8 79.17 153.44 79.31C153.08 79.43 152.76 79.67 152.48 80.03C152.22 80.39 151.98 80.89 151.76 81.53C151.54 82.17 151.3 83 151.04 84.02L147.89 95.96C147.65 96.84 147.53 97.54 147.53 98.06C147.53 98.74 147.76 99.2 148.22 99.44C148.7 99.68 149.48 99.8 150.56 99.8L150.2 101H140.63L140.96 99.8C141.5 99.8 141.96 99.76 142.34 99.68C142.72 99.58 143.05 99.4 143.33 99.14C143.63 98.88 143.88 98.52 144.08 98.06C144.3 97.6 144.51 97 144.71 96.26L148.67 81.35H148.55ZM163.774 97.01C162.034 99.87 159.894 101.3 157.354 101.3C155.974 101.3 154.914 100.88 154.174 100.04C153.434 99.18 153.064 97.97 153.064 96.41C153.064 95.03 153.344 93.65 153.904 92.27C154.484 90.89 155.234 89.65 156.154 88.55C157.074 87.43 158.104 86.53 159.244 85.85C160.384 85.15 161.524 84.8 162.664 84.8C163.624 84.8 164.404 85.05 165.004 85.55C165.624 86.03 165.934 86.65 165.934 87.41C165.934 88.11 165.674 88.83 165.154 89.57C164.634 90.31 163.924 91.01 163.024 91.67C162.144 92.33 161.104 92.93 159.904 93.47C158.724 94.01 157.464 94.43 156.124 94.73C156.084 95.01 156.054 95.29 156.034 95.57C156.014 95.83 156.004 96.1 156.004 96.38C156.004 98.56 156.774 99.65 158.314 99.65C159.054 99.65 159.814 99.36 160.594 98.78C161.394 98.2 162.134 97.4 162.814 96.38L163.774 97.01ZM162.064 86.21C161.544 86.21 161.004 86.41 160.444 86.81C159.884 87.21 159.344 87.75 158.824 88.43C158.324 89.09 157.864 89.85 157.444 90.71C157.024 91.57 156.684 92.46 156.424 93.38C157.384 93.12 158.274 92.78 159.094 92.36C159.914 91.94 160.614 91.47 161.194 90.95C161.794 90.41 162.264 89.85 162.604 89.27C162.944 88.67 163.114 88.07 163.114 87.47C163.114 86.63 162.764 86.21 162.064 86.21ZM166.955 89.27C167.175 88.77 167.505 88.26 167.945 87.74C168.405 87.2 168.895 86.72 169.415 86.3C169.955 85.86 170.495 85.5 171.035 85.22C171.575 84.94 172.045 84.8 172.445 84.8C172.925 84.8 173.275 84.98 173.495 85.34C173.715 85.7 173.825 86.28 173.825 87.08C173.825 87.4 173.805 87.71 173.765 88.01C173.745 88.31 173.695 88.66 173.615 89.06L173.705 89.15C173.945 88.57 174.285 88 174.725 87.44C175.165 86.88 175.635 86.39 176.135 85.97C176.655 85.53 177.175 85.18 177.695 84.92C178.235 84.64 178.735 84.5 179.195 84.5C179.775 84.5 180.255 84.69 180.635 85.07C181.035 85.43 181.235 85.88 181.235 86.42C181.235 86.94 181.065 87.37 180.725 87.71C180.405 88.05 179.985 88.22 179.465 88.22C179.145 88.22 178.885 88.16 178.685 88.04C178.505 87.92 178.345 87.8 178.205 87.68C178.065 87.54 177.935 87.41 177.815 87.29C177.695 87.17 177.545 87.11 177.365 87.11C176.985 87.11 176.545 87.37 176.045 87.89C175.545 88.39 175.025 89.08 174.485 89.96C173.945 90.84 173.405 91.87 172.865 93.05C172.345 94.23 171.865 95.5 171.425 96.86L170.075 101H167.285L169.235 94.79C169.615 93.59 169.925 92.6 170.165 91.82C170.425 91.02 170.625 90.36 170.765 89.84C170.905 89.3 170.995 88.88 171.035 88.58C171.095 88.28 171.125 88.02 171.125 87.8C171.125 87.36 170.975 87.14 170.675 87.14C170.475 87.14 170.225 87.22 169.925 87.38C169.645 87.54 169.365 87.74 169.085 87.98C168.805 88.22 168.535 88.49 168.275 88.79C168.035 89.09 167.855 89.38 167.735 89.66L166.955 89.27ZM180.842 89.27C181.062 88.77 181.392 88.26 181.832 87.74C182.292 87.2 182.782 86.72 183.302 86.3C183.842 85.86 184.382 85.5 184.922 85.22C185.462 84.94 185.932 84.8 186.332 84.8C186.812 84.8 187.162 84.98 187.382 85.34C187.602 85.7 187.712 86.28 187.712 87.08C187.712 87.4 187.692 87.71 187.652 88.01C187.632 88.31 187.582 88.66 187.502 89.06L187.592 89.15C187.832 88.57 188.172 88 188.612 87.44C189.052 86.88 189.522 86.39 190.022 85.97C190.542 85.53 191.062 85.18 191.582 84.92C192.122 84.64 192.622 84.5 193.082 84.5C193.662 84.5 194.142 84.69 194.522 85.07C194.922 85.43 195.122 85.88 195.122 86.42C195.122 86.94 194.952 87.37 194.612 87.71C194.292 88.05 193.872 88.22 193.352 88.22C193.032 88.22 192.772 88.16 192.572 88.04C192.392 87.92 192.232 87.8 192.092 87.68C191.952 87.54 191.822 87.41 191.702 87.29C191.582 87.17 191.432 87.11 191.252 87.11C190.872 87.11 190.432 87.37 189.932 87.89C189.432 88.39 188.912 89.08 188.372 89.96C187.832 90.84 187.292 91.87 186.752 93.05C186.232 94.23 185.752 95.5 185.312 96.86L183.962 101H181.172L183.122 94.79C183.502 93.59 183.812 92.6 184.052 91.82C184.312 91.02 184.512 90.36 184.652 89.84C184.792 89.3 184.882 88.88 184.922 88.58C184.982 88.28 185.012 88.02 185.012 87.8C185.012 87.36 184.862 87.14 184.562 87.14C184.362 87.14 184.112 87.22 183.812 87.38C183.532 87.54 183.252 87.74 182.972 87.98C182.692 88.22 182.422 88.49 182.162 88.79C181.922 89.09 181.742 89.38 181.622 89.66L180.842 89.27ZM198.929 92.24C198.609 90.6 198.279 89.47 197.939 88.85C197.619 88.21 197.279 87.89 196.919 87.89C196.539 87.89 196.189 88.18 195.869 88.76C195.569 89.32 195.259 90.22 194.939 91.46L193.829 91.16C194.029 90.24 194.289 89.39 194.609 88.61C194.949 87.83 195.309 87.16 195.689 86.6C196.089 86.02 196.509 85.58 196.949 85.28C197.389 84.96 197.829 84.8 198.269 84.8C198.649 84.8 198.969 84.94 199.229 85.22C199.509 85.5 199.789 86.02 200.069 86.78C200.309 87.42 200.569 88.27 200.849 89.33C201.149 90.37 201.439 91.57 201.719 92.93L202.739 97.76H202.859C203.239 97.28 203.619 96.74 203.999 96.14C204.399 95.52 204.759 94.88 205.079 94.22C205.399 93.54 205.659 92.86 205.859 92.18C206.059 91.48 206.159 90.83 206.159 90.23C206.159 90.03 206.149 89.78 206.129 89.48C206.109 89.16 206.079 88.84 206.039 88.52C206.019 88.2 205.999 87.9 205.979 87.62C205.959 87.32 205.949 87.08 205.949 86.9C205.949 86.18 206.129 85.65 206.489 85.31C206.849 84.97 207.229 84.8 207.629 84.8C208.149 84.8 208.529 85.02 208.769 85.46C209.009 85.9 209.129 86.41 209.129 86.99C209.129 87.81 208.909 88.86 208.469 90.14C208.029 91.42 207.449 92.8 206.729 94.28C206.009 95.74 205.179 97.24 204.239 98.78C203.299 100.3 202.329 101.7 201.329 102.98C199.809 104.96 198.399 106.42 197.099 107.36C195.819 108.32 194.619 108.8 193.499 108.8C192.659 108.8 191.999 108.57 191.519 108.11C191.019 107.65 190.769 107.09 190.769 106.43C190.769 105.93 190.909 105.52 191.189 105.2C191.469 104.9 191.839 104.75 192.299 104.75C192.699 104.75 192.999 104.86 193.199 105.08C193.379 105.32 193.529 105.58 193.649 105.86C193.769 106.16 193.899 106.42 194.039 106.64C194.159 106.88 194.359 107 194.639 107C195.019 107 195.499 106.79 196.079 106.37C196.659 105.95 197.239 105.42 197.819 104.78C198.399 104.16 198.939 103.48 199.439 102.74C199.959 102 200.329 101.31 200.549 100.67L198.929 92.24ZM109.693 132.33C108.993 133.39 108.303 134.3 107.623 135.06C106.963 135.82 106.273 136.44 105.553 136.92C104.833 137.4 104.073 137.75 103.273 137.97C102.473 138.19 101.613 138.3 100.693 138.3C99.3332 138.3 98.1132 138.09 97.0332 137.67C95.9532 137.23 95.0332 136.61 94.2732 135.81C93.5332 134.99 92.9532 134.01 92.5332 132.87C92.1332 131.71 91.9332 130.41 91.9332 128.97C91.9332 127.07 92.2832 125.26 92.9832 123.54C93.6832 121.8 94.6132 120.27 95.7732 118.95C96.9532 117.63 98.3132 116.58 99.8532 115.8C101.393 115 103.003 114.6 104.683 114.6C105.643 114.6 106.553 114.75 107.413 115.05C108.293 115.33 109.183 115.78 110.083 116.4L111.193 114.9H112.303L110.923 122.43H109.783C109.623 120.25 109.153 118.66 108.373 117.66C107.613 116.66 106.463 116.16 104.923 116.16C103.603 116.16 102.373 116.49 101.233 117.15C100.093 117.81 99.1032 118.72 98.2632 119.88C97.4232 121.04 96.7632 122.4 96.2832 123.96C95.8032 125.52 95.5632 127.2 95.5632 129C95.5632 133.96 97.4932 136.44 101.353 136.44C102.793 136.44 104.093 136.05 105.253 135.27C106.433 134.49 107.553 133.27 108.613 131.61L109.693 132.33ZM122.249 128.67C122.589 127.65 122.829 126.84 122.969 126.24C123.129 125.64 123.209 125.11 123.209 124.65C123.209 124.19 123.129 123.87 122.969 123.69C122.829 123.49 122.579 123.39 122.219 123.39C121.599 123.39 120.989 123.63 120.389 124.11C119.789 124.59 119.179 125.34 118.559 126.36C117.959 127.38 117.329 128.68 116.669 130.26C116.009 131.84 115.309 133.73 114.569 135.93L113.879 138H111.359L117.299 117.66C117.439 117.16 117.549 116.72 117.629 116.34C117.709 115.96 117.749 115.66 117.749 115.44C117.749 115.04 117.559 114.76 117.179 114.6C116.799 114.44 116.099 114.34 115.079 114.3L115.289 113.1H121.409L117.989 124.68L118.079 124.74C118.719 123.8 119.459 123.08 120.299 122.58C121.139 122.06 122.019 121.8 122.939 121.8C123.899 121.8 124.629 122.08 125.129 122.64C125.629 123.2 125.879 124.01 125.879 125.07C125.879 125.73 125.779 126.5 125.579 127.38C125.379 128.26 125.069 129.27 124.649 130.41C124.249 131.49 123.939 132.34 123.719 132.96C123.499 133.58 123.339 134.06 123.239 134.4C123.139 134.72 123.069 134.94 123.029 135.06C123.009 135.18 122.999 135.28 122.999 135.36C122.999 135.82 123.189 136.05 123.569 136.05C123.969 136.05 124.459 135.82 125.039 135.36C125.639 134.88 126.239 134.22 126.839 133.38L127.679 134.01C127.359 134.59 126.959 135.14 126.479 135.66C126.019 136.18 125.509 136.64 124.949 137.04C124.409 137.42 123.849 137.73 123.269 137.97C122.709 138.19 122.179 138.3 121.679 138.3C121.139 138.3 120.749 138.15 120.509 137.85C120.269 137.55 120.149 137.07 120.149 136.41C120.149 136.07 120.179 135.71 120.239 135.33C120.299 134.95 120.399 134.48 120.539 133.92C120.699 133.34 120.909 132.64 121.169 131.82C121.449 130.98 121.809 129.93 122.249 128.67ZM129.426 126.27C129.646 125.77 129.976 125.26 130.416 124.74C130.876 124.2 131.366 123.72 131.886 123.3C132.426 122.86 132.966 122.5 133.506 122.22C134.046 121.94 134.516 121.8 134.916 121.8C135.396 121.8 135.746 121.98 135.966 122.34C136.186 122.7 136.296 123.28 136.296 124.08C136.296 124.4 136.276 124.71 136.236 125.01C136.216 125.31 136.166 125.66 136.086 126.06L136.176 126.15C136.416 125.57 136.756 125 137.196 124.44C137.636 123.88 138.106 123.39 138.606 122.97C139.126 122.53 139.646 122.18 140.166 121.92C140.706 121.64 141.206 121.5 141.666 121.5C142.246 121.5 142.726 121.69 143.106 122.07C143.506 122.43 143.706 122.88 143.706 123.42C143.706 123.94 143.536 124.37 143.196 124.71C142.876 125.05 142.456 125.22 141.936 125.22C141.616 125.22 141.356 125.16 141.156 125.04C140.976 124.92 140.816 124.8 140.676 124.68C140.536 124.54 140.406 124.41 140.286 124.29C140.166 124.17 140.016 124.11 139.836 124.11C139.456 124.11 139.016 124.37 138.516 124.89C138.016 125.39 137.496 126.08 136.956 126.96C136.416 127.84 135.876 128.87 135.336 130.05C134.816 131.23 134.336 132.5 133.896 133.86L132.546 138H129.756L131.706 131.79C132.086 130.59 132.396 129.6 132.636 128.82C132.896 128.02 133.096 127.36 133.236 126.84C133.376 126.3 133.466 125.88 133.506 125.58C133.566 125.28 133.596 125.02 133.596 124.8C133.596 124.36 133.446 124.14 133.146 124.14C132.946 124.14 132.696 124.22 132.396 124.38C132.116 124.54 131.836 124.74 131.556 124.98C131.276 125.22 131.006 125.49 130.746 125.79C130.506 126.09 130.326 126.38 130.206 126.66L129.426 126.27ZM146.613 128.1C146.893 127.32 147.093 126.69 147.213 126.21C147.333 125.73 147.393 125.35 147.393 125.07C147.393 124.79 147.343 124.61 147.243 124.53C147.163 124.43 147.073 124.38 146.973 124.38C146.753 124.38 146.513 124.49 146.253 124.71C145.993 124.91 145.733 125.15 145.473 125.43C145.213 125.71 144.983 125.99 144.783 126.27C144.583 126.55 144.443 126.77 144.363 126.93L143.493 126.39C143.733 125.95 144.063 125.46 144.483 124.92C144.923 124.38 145.413 123.88 145.953 123.42C146.493 122.96 147.053 122.58 147.633 122.28C148.213 121.96 148.763 121.8 149.283 121.8C149.783 121.8 150.153 121.95 150.393 122.25C150.653 122.53 150.783 123.05 150.783 123.81C150.783 124.39 150.603 125.17 150.243 126.15C149.903 127.13 149.453 128.39 148.893 129.93L147.783 132.96C147.743 133.06 147.683 133.22 147.603 133.44C147.543 133.64 147.473 133.86 147.393 134.1C147.333 134.32 147.273 134.54 147.213 134.76C147.173 134.98 147.153 135.16 147.153 135.3C147.153 135.48 147.203 135.64 147.303 135.78C147.403 135.92 147.563 135.99 147.783 135.99C148.083 135.99 148.393 135.87 148.713 135.63C149.033 135.37 149.343 135.07 149.643 134.73C149.943 134.39 150.213 134.05 150.453 133.71C150.693 133.35 150.873 133.07 150.993 132.87L151.893 133.38C151.653 133.86 151.323 134.39 150.903 134.97C150.503 135.55 150.043 136.09 149.523 136.59C149.003 137.07 148.433 137.48 147.813 137.82C147.193 138.14 146.553 138.3 145.893 138.3C145.313 138.3 144.873 138.15 144.573 137.85C144.293 137.55 144.153 137.05 144.153 136.35C144.153 135.77 144.243 135.15 144.423 134.49C144.623 133.81 144.903 132.96 145.263 131.94L146.613 128.1ZM151.023 116.88C150.523 116.88 150.083 116.71 149.703 116.37C149.343 116.03 149.163 115.59 149.163 115.05C149.163 114.51 149.343 114.05 149.703 113.67C150.063 113.29 150.503 113.1 151.023 113.1C151.583 113.1 152.043 113.29 152.403 113.67C152.763 114.05 152.943 114.5 152.943 115.02C152.943 115.54 152.753 115.98 152.373 116.34C151.993 116.7 151.543 116.88 151.023 116.88ZM155.305 126.39C155.305 125.73 155.425 125.12 155.665 124.56C155.925 124 156.275 123.52 156.715 123.12C157.155 122.7 157.675 122.38 158.275 122.16C158.895 121.92 159.565 121.8 160.285 121.8C161.245 121.8 162.045 122.04 162.685 122.52C163.325 123 163.645 123.62 163.645 124.38C163.645 124.8 163.525 125.13 163.285 125.37C163.065 125.61 162.755 125.73 162.355 125.73C161.895 125.73 161.565 125.6 161.365 125.34C161.165 125.06 160.995 124.76 160.855 124.44C160.715 124.1 160.565 123.79 160.405 123.51C160.245 123.23 159.975 123.09 159.595 123.09C159.155 123.09 158.785 123.28 158.485 123.66C158.185 124.04 158.035 124.51 158.035 125.07C158.035 125.73 158.225 126.35 158.605 126.93C159.005 127.49 159.445 128.08 159.925 128.7C160.405 129.32 160.835 130 161.215 130.74C161.615 131.48 161.815 132.35 161.815 133.35C161.815 134.03 161.665 134.67 161.365 135.27C161.085 135.87 160.695 136.4 160.195 136.86C159.715 137.3 159.155 137.65 158.515 137.91C157.875 138.17 157.215 138.3 156.535 138.3C155.335 138.3 154.375 138.04 153.655 137.52C152.955 137 152.605 136.32 152.605 135.48C152.605 134.9 152.735 134.45 152.995 134.13C153.275 133.79 153.645 133.62 154.105 133.62C154.965 133.62 155.455 134.21 155.575 135.39C155.635 136.03 155.735 136.46 155.875 136.68C156.035 136.88 156.345 136.98 156.805 136.98C157.525 136.98 158.095 136.77 158.515 136.35C158.935 135.91 159.145 135.31 159.145 134.55C159.145 133.75 158.945 133.04 158.545 132.42C158.145 131.8 157.705 131.2 157.225 130.62C156.745 130.02 156.305 129.39 155.905 128.73C155.505 128.07 155.305 127.29 155.305 126.39ZM171.471 124.59L168.981 132.84C168.641 133.92 168.461 134.74 168.441 135.3C168.441 135.48 168.481 135.64 168.561 135.78C168.661 135.92 168.821 135.99 169.041 135.99C169.401 135.99 169.781 135.86 170.181 135.6C170.581 135.32 170.961 135 171.321 134.64C171.701 134.26 172.031 133.88 172.311 133.5C172.611 133.1 172.831 132.79 172.971 132.57L173.841 133.08C173.501 133.76 173.071 134.42 172.551 135.06C172.031 135.68 171.481 136.23 170.901 136.71C170.321 137.19 169.731 137.58 169.131 137.88C168.551 138.16 168.021 138.3 167.541 138.3C166.841 138.3 166.331 138.15 166.011 137.85C165.711 137.55 165.561 137.05 165.561 136.35C165.561 135.95 165.631 135.41 165.771 134.73C165.911 134.05 166.151 133.12 166.491 131.94L168.711 124.59H166.131L166.521 123.21H169.131L170.691 118.05H173.451L171.891 123.21H175.161L174.741 124.59H171.471ZM200.728 118.35L188.428 138H187.138L184.798 118.35H184.678L180.838 132.96C180.778 133.2 180.728 133.43 180.688 133.65C180.648 133.87 180.628 134.08 180.628 134.28C180.628 135.12 180.858 135.75 181.318 136.17C181.798 136.57 182.428 136.78 183.208 136.8L182.848 138H174.568L174.898 136.8C175.838 136.8 176.678 136.47 177.418 135.81C178.158 135.13 178.668 134.28 178.948 133.26L182.458 120C182.758 118.9 182.908 118.08 182.908 117.54C182.908 116.92 182.678 116.53 182.218 116.37C181.778 116.19 181.018 116.1 179.938 116.1L180.268 114.9H187.468L189.598 132.78H189.718L201.028 114.9H207.358L207.028 116.1C206.448 116.1 205.978 116.17 205.618 116.31C205.258 116.43 204.938 116.67 204.658 117.03C204.398 117.39 204.158 117.89 203.938 118.53C203.718 119.17 203.478 120 203.218 121.02L200.068 132.96C199.828 133.84 199.708 134.54 199.708 135.06C199.708 135.74 199.938 136.2 200.398 136.44C200.878 136.68 201.658 136.8 202.738 136.8L202.378 138H192.808L193.138 136.8C193.678 136.8 194.138 136.76 194.518 136.68C194.898 136.58 195.228 136.4 195.508 136.14C195.808 135.88 196.058 135.52 196.258 135.06C196.478 134.6 196.688 134 196.888 133.26L200.848 118.35H200.728ZM214.898 123.36C214.138 123.36 213.348 123.71 212.528 124.41C211.728 125.11 210.998 125.99 210.338 127.05C209.678 128.09 209.138 129.22 208.718 130.44C208.298 131.64 208.088 132.76 208.088 133.8C208.088 134.52 208.238 135.1 208.538 135.54C208.838 135.96 209.248 136.17 209.768 136.17C210.228 136.17 210.708 135.99 211.208 135.63C211.708 135.25 212.188 134.76 212.648 134.16C213.128 133.54 213.578 132.84 213.998 132.06C214.418 131.28 214.788 130.48 215.108 129.66C215.428 128.82 215.678 128 215.858 127.2C216.038 126.4 216.128 125.68 216.128 125.04C216.128 124.52 216.018 124.11 215.798 123.81C215.578 123.51 215.278 123.36 214.898 123.36ZM217.988 122.1H220.478L218.768 126.69C218.488 127.45 218.208 128.26 217.928 129.12C217.668 129.98 217.428 130.81 217.208 131.61C217.008 132.41 216.848 133.14 216.728 133.8C216.608 134.46 216.548 134.95 216.548 135.27C216.548 135.85 216.738 136.14 217.118 136.14C217.398 136.14 217.798 135.85 218.318 135.27C218.858 134.69 219.458 133.94 220.118 133.02L220.898 133.65C220.058 135.13 219.148 136.28 218.168 137.1C217.208 137.9 216.278 138.3 215.378 138.3C214.918 138.3 214.558 138.13 214.298 137.79C214.058 137.43 213.938 136.85 213.938 136.05C213.938 135.87 213.938 135.66 213.938 135.42C213.958 135.18 213.988 134.86 214.028 134.46L213.908 134.43C213.608 134.99 213.248 135.51 212.828 135.99C212.428 136.45 211.988 136.86 211.508 137.22C211.028 137.56 210.528 137.82 210.008 138C209.488 138.2 208.978 138.3 208.478 138.3C207.458 138.3 206.658 137.92 206.078 137.16C205.518 136.38 205.238 135.31 205.238 133.95C205.238 132.57 205.528 131.16 206.108 129.72C206.688 128.28 207.438 126.98 208.358 125.82C209.278 124.64 210.298 123.68 211.418 122.94C212.538 122.18 213.638 121.8 214.718 121.8C215.378 121.8 215.918 121.96 216.338 122.28C216.758 122.58 217.098 123.08 217.358 123.78L217.988 122.1ZM224.358 126.39C224.358 125.73 224.478 125.12 224.718 124.56C224.978 124 225.328 123.52 225.768 123.12C226.208 122.7 226.728 122.38 227.328 122.16C227.948 121.92 228.618 121.8 229.338 121.8C230.298 121.8 231.098 122.04 231.738 122.52C232.378 123 232.698 123.62 232.698 124.38C232.698 124.8 232.578 125.13 232.338 125.37C232.118 125.61 231.808 125.73 231.408 125.73C230.948 125.73 230.618 125.6 230.418 125.34C230.218 125.06 230.048 124.76 229.908 124.44C229.768 124.1 229.618 123.79 229.458 123.51C229.298 123.23 229.028 123.09 228.648 123.09C228.208 123.09 227.838 123.28 227.538 123.66C227.238 124.04 227.088 124.51 227.088 125.07C227.088 125.73 227.278 126.35 227.658 126.93C228.058 127.49 228.498 128.08 228.978 128.7C229.458 129.32 229.888 130 230.268 130.74C230.668 131.48 230.868 132.35 230.868 133.35C230.868 134.03 230.718 134.67 230.418 135.27C230.138 135.87 229.748 136.4 229.248 136.86C228.768 137.3 228.208 137.65 227.568 137.91C226.928 138.17 226.268 138.3 225.588 138.3C224.388 138.3 223.428 138.04 222.708 137.52C222.008 137 221.658 136.32 221.658 135.48C221.658 134.9 221.788 134.45 222.048 134.13C222.328 133.79 222.698 133.62 223.158 133.62C224.018 133.62 224.508 134.21 224.628 135.39C224.688 136.03 224.788 136.46 224.928 136.68C225.088 136.88 225.398 136.98 225.858 136.98C226.578 136.98 227.148 136.77 227.568 136.35C227.988 135.91 228.198 135.31 228.198 134.55C228.198 133.75 227.998 133.04 227.598 132.42C227.198 131.8 226.758 131.2 226.278 130.62C225.798 130.02 225.358 129.39 224.958 128.73C224.558 128.07 224.358 127.29 224.358 126.39ZM245.605 131.79L247.045 118.14C247.185 116.86 247.415 115.95 247.735 115.41C248.075 114.87 248.595 114.6 249.295 114.6C249.855 114.6 250.265 114.78 250.525 115.14C250.805 115.48 250.945 116.05 250.945 116.85C250.945 117.23 250.905 117.61 250.825 117.99C250.765 118.35 250.655 118.77 250.495 119.25C250.355 119.71 250.165 120.26 249.925 120.9C249.685 121.52 249.385 122.28 249.025 123.18C248.745 123.88 248.475 124.62 248.215 125.4C247.975 126.18 247.745 126.95 247.525 127.71C247.325 128.47 247.145 129.21 246.985 129.93C246.845 130.63 246.735 131.25 246.655 131.79H245.605ZM245.305 138.3C244.805 138.3 244.365 138.13 243.985 137.79C243.625 137.45 243.445 137.01 243.445 136.47C243.445 135.93 243.625 135.47 243.985 135.09C244.345 134.71 244.795 134.52 245.335 134.52C245.875 134.52 246.325 134.71 246.685 135.09C247.045 135.47 247.225 135.92 247.225 136.44C247.225 136.96 247.035 137.4 246.655 137.76C246.275 138.12 245.825 138.3 245.305 138.3Z" fill="white"/>
<path d="M79.1667 54.8C78.5903 54.8 78.0486 54.7015 77.5417 54.5045C77.0347 54.3075 76.5938 54.0404 76.2188 53.7031C75.8438 53.3656 75.5469 52.9687 75.3283 52.5125C75.1097 52.0562 75.0003 51.5687 75 51.05C75 50.5312 75.1094 50.0437 75.3283 49.5875C75.5472 49.1312 75.844 48.7344 76.2188 48.3969C76.5938 48.0594 77.0347 47.7922 77.5417 47.5955C78.0486 47.3987 78.5903 47.3002 79.1667 47.3C79.7431 47.3 80.2847 47.3985 80.7917 47.5955C81.2986 47.7925 81.7396 48.0596 82.1146 48.3969C82.4896 48.7344 82.7865 49.1312 83.0054 49.5875C83.2243 50.0437 83.3336 50.5312 83.3333 51.05C83.3333 51.5687 83.2239 52.0562 83.005 52.5125C82.7861 52.9687 82.4893 53.3656 82.1146 53.7031C81.7396 54.0406 81.2986 54.3079 80.7917 54.5049C80.2847 54.7019 79.7431 54.8002 79.1667 54.8Z" fill="#F8F8F8" fill-opacity="0.9"/>
<path d="M52.5 132.8C52.0158 132.8 51.5608 132.717 51.135 132.552C50.7092 132.386 50.3387 132.162 50.0237 131.879C49.7088 131.595 49.4594 131.262 49.2758 130.878C49.0922 130.495 49.0002 130.086 49 129.65C49 129.214 49.0919 128.805 49.2758 128.421C49.4597 128.038 49.709 127.705 50.0237 127.421C50.3387 127.138 50.7092 126.913 51.135 126.748C51.5608 126.583 52.0158 126.5 52.5 126.5C52.9842 126.5 53.4392 126.583 53.865 126.748C54.2908 126.914 54.6612 127.138 54.9762 127.421C55.2912 127.705 55.5407 128.038 55.7245 128.421C55.9084 128.805 56.0002 129.214 56 129.65C56 130.086 55.9081 130.495 55.7242 130.878C55.5403 131.262 55.291 131.595 54.9762 131.879C54.6612 132.162 54.2908 132.387 53.865 132.552C53.4392 132.718 52.9842 132.8 52.5 132.8Z" fill="#F8F8F8" fill-opacity="0.9"/>
<path d="M99 161.6C98.17 161.6 97.39 161.458 96.66 161.174C95.93 160.891 95.295 160.506 94.755 160.02C94.215 159.534 93.7876 158.963 93.4728 158.306C93.158 157.649 93.0004 156.947 93 156.2C93 155.453 93.1576 154.751 93.4728 154.094C93.788 153.437 94.2154 152.865 94.755 152.379C95.295 151.893 95.93 151.509 96.66 151.226C97.39 150.942 98.17 150.8 99 150.8C99.83 150.8 100.61 150.942 101.34 151.226C102.07 151.509 102.705 151.894 103.245 152.379C103.785 152.865 104.213 153.437 104.528 154.094C104.843 154.751 105 155.453 105 156.2C105 156.947 104.842 157.649 104.527 158.306C104.212 158.963 103.785 159.534 103.245 160.02C102.705 160.506 102.07 160.891 101.34 161.175C100.61 161.459 99.83 161.6 99 161.6Z" fill="#F8F8F8" fill-opacity="0.9"/>
<path d="M289.5 36.5C289.154 36.5 288.829 36.4409 288.525 36.3227C288.221 36.2045 287.956 36.0442 287.731 35.8419C287.506 35.6394 287.328 35.4012 287.197 35.1275C287.066 34.8537 287 34.5612 287 34.25C287 33.9387 287.066 33.6462 287.197 33.3725C287.328 33.0987 287.506 32.8606 287.731 32.6581C287.956 32.4556 288.221 32.2953 288.525 32.1773C288.829 32.0593 289.154 32.0001 289.5 32C289.846 32 290.171 32.0591 290.475 32.1773C290.779 32.2955 291.044 32.4558 291.269 32.6581C291.494 32.8606 291.672 33.0987 291.803 33.3725C291.935 33.6462 292 33.9387 292 34.25C292 34.5612 291.934 34.8537 291.803 35.1275C291.672 35.4012 291.494 35.6394 291.269 35.8419C291.044 36.0444 290.779 36.2047 290.475 36.3229C290.171 36.4411 289.846 36.5001 289.5 36.5Z" fill="#F8F8F8" fill-opacity="0.9"/>
<path d="M41 186.8C40.3083 186.8 39.6583 186.682 39.05 186.445C38.4417 186.209 37.9125 185.888 37.4625 185.484C37.0125 185.079 36.6563 184.602 36.394 184.055C36.1317 183.507 36.0003 182.922 36 182.3C36 181.677 36.1313 181.092 36.394 180.545C36.6567 179.997 37.0128 179.521 37.4625 179.116C37.9125 178.711 38.4417 178.391 39.05 178.155C39.6583 177.918 40.3083 177.8 41 177.8C41.6917 177.8 42.3417 177.918 42.95 178.155C43.5583 178.391 44.0875 178.712 44.5375 179.116C44.9875 179.521 45.3438 179.997 45.6065 180.545C45.8692 181.092 46.0003 181.677 46 182.3C46 182.922 45.8687 183.507 45.606 184.055C45.3433 184.602 44.9872 185.079 44.5375 185.484C44.0875 185.889 43.5583 186.209 42.95 186.446C42.3417 186.682 41.6917 186.8 41 186.8Z" fill="#F8F8F8" fill-opacity="0.9"/>
<path d="M276.167 92.6C275.59 92.6 275.049 92.5015 274.542 92.3045C274.035 92.1075 273.594 91.8404 273.219 91.5031C272.844 91.1656 272.547 90.7687 272.328 90.3125C272.11 89.8562 272 89.3687 272 88.85C272 88.3312 272.109 87.8437 272.328 87.3875C272.547 86.9312 272.844 86.5344 273.219 86.1969C273.594 85.8594 274.035 85.5922 274.542 85.3955C275.049 85.1987 275.59 85.1002 276.167 85.1C276.743 85.1 277.285 85.1985 277.792 85.3955C278.299 85.5925 278.74 85.8596 279.115 86.1969C279.49 86.5344 279.787 86.9312 280.005 87.3875C280.224 87.8437 280.334 88.3312 280.333 88.85C280.333 89.3687 280.224 89.8562 280.005 90.3125C279.786 90.7687 279.489 91.1656 279.115 91.5031C278.74 91.8406 278.299 92.1079 277.792 92.3049C277.285 92.5019 276.743 92.6002 276.167 92.6Z" fill="#F8F8F8" fill-opacity="0.9"/>
<path d="M283.5 181.4C283.016 181.4 282.561 181.317 282.135 181.152C281.709 180.986 281.339 180.762 281.024 180.479C280.709 180.195 280.459 179.862 280.276 179.478C280.092 179.095 280 178.686 280 178.25C280 177.814 280.092 177.405 280.276 177.021C280.46 176.638 280.709 176.305 281.024 176.021C281.339 175.738 281.709 175.513 282.135 175.348C282.561 175.183 283.016 175.1 283.5 175.1C283.984 175.1 284.439 175.183 284.865 175.348C285.291 175.514 285.661 175.738 285.976 176.021C286.291 176.305 286.541 176.638 286.725 177.021C286.908 177.405 287 177.814 287 178.25C287 178.686 286.908 179.095 286.724 179.478C286.54 179.862 286.291 180.195 285.976 180.479C285.661 180.762 285.291 180.987 284.865 181.152C284.439 181.318 283.984 181.4 283.5 181.4Z" fill="#F8F8F8" fill-opacity="0.9"/>
<path d="M253.5 66.2C252.601 66.2 251.756 66.0463 250.965 65.739C250.174 65.4317 249.486 65.015 248.901 64.4889C248.316 63.9624 247.853 63.3432 247.512 62.6315C247.171 61.9197 247 61.1592 247 60.35C247 59.5407 247.171 58.7802 247.512 58.0685C247.854 57.3567 248.317 56.7376 248.901 56.2111C249.486 55.6846 250.174 55.2679 250.965 54.961C251.756 54.6541 252.601 54.5004 253.5 54.5C254.399 54.5 255.244 54.6537 256.035 54.961C256.826 55.2683 257.514 55.685 258.099 56.2111C258.684 56.7376 259.147 57.3567 259.488 58.0685C259.83 58.7802 260 59.5407 260 60.35C260 61.1592 259.829 61.9197 259.488 62.6315C259.146 63.3432 258.683 63.9624 258.099 64.4889C257.514 65.0154 256.826 65.4323 256.035 65.7396C255.244 66.0469 254.399 66.2004 253.5 66.2Z" fill="#F8F8F8" fill-opacity="0.9"/>
</svg>
