<svg width="17" height="17" viewBox="0 0 17 17" fill="none" xmlns="http://www.w3.org/2000/svg">
<path fill-rule="evenodd" clip-rule="evenodd" d="M2.125 4.25C2.125 3.68641 2.34888 3.14591 2.7474 2.7474C3.14591 2.34888 3.68641 2.125 4.25 2.125H12.75C13.3136 2.125 13.8541 2.34888 14.2526 2.7474C14.6511 3.14591 14.875 3.68641 14.875 4.25V12.75C14.875 13.3136 14.6511 13.8541 14.2526 14.2526C13.8541 14.6511 13.3136 14.875 12.75 14.875H4.25C3.68641 14.875 3.14591 14.6511 2.7474 14.2526C2.34888 13.8541 2.125 13.3136 2.125 12.75V4.25ZM13.4583 4.25V10.3317L11.1258 7.99921C10.993 7.86642 10.8128 7.79182 10.625 7.79182C10.4372 7.79182 10.257 7.86642 10.1242 7.99921L9.20833 8.91508L6.52162 6.22837C6.38879 6.09558 6.20866 6.02098 6.02083 6.02098C5.83301 6.02098 5.65287 6.09558 5.52004 6.22837L3.54167 8.20675V4.25C3.54167 4.06214 3.61629 3.88197 3.74913 3.74913C3.88197 3.61629 4.06214 3.54167 4.25 3.54167H12.75C12.9379 3.54167 13.118 3.61629 13.2509 3.74913C13.3837 3.88197 13.4583 4.06214 13.4583 4.25ZM3.54167 12.75V10.2099L6.02083 7.73075L8.70754 10.4175C8.84037 10.5502 9.02051 10.6248 9.20833 10.6248C9.39616 10.6248 9.57629 10.5502 9.70912 10.4175L10.625 9.50158L13.4583 12.3349V12.75C13.4583 12.9379 13.3837 13.118 13.2509 13.2509C13.118 13.3837 12.9379 13.4583 12.75 13.4583H4.25C4.06214 13.4583 3.88197 13.3837 3.74913 13.2509C3.61629 13.118 3.54167 12.9379 3.54167 12.75ZM10.2708 7.08333C10.5526 7.08333 10.8229 6.97139 11.0221 6.77213C11.2214 6.57288 11.3333 6.30263 11.3333 6.02083C11.3333 5.73904 11.2214 5.46879 11.0221 5.26953C10.8229 5.07027 10.5526 4.95833 10.2708 4.95833C9.98904 4.95833 9.71879 5.07027 9.51953 5.26953C9.32027 5.46879 9.20833 5.73904 9.20833 6.02083C9.20833 6.30263 9.32027 6.57288 9.51953 6.77213C9.71879 6.97139 9.98904 7.08333 10.2708 7.08333Z" fill="#005703"/>
</svg>
