<svg width="27" height="27" viewBox="0 0 27 27" fill="none" xmlns="http://www.w3.org/2000/svg">
<path fill-rule="evenodd" clip-rule="evenodd" d="M8.81339 10.4682C7.74959 10.9265 7.26708 12.1444 7.71355 13.1806C8.21607 14.347 9.42724 15.3005 10.9964 16.0699C12.3143 16.7153 13.7773 17.1793 15.0288 17.523C15.6386 16.3773 16.3059 14.9946 16.7424 13.5943C17.2611 11.9253 17.3996 10.3893 16.8974 9.22374C16.4509 8.1875 15.2344 7.70171 14.1706 8.16004C13.1068 8.61838 12.6243 9.83619 13.0708 10.8724C13.1582 11.0754 13.1615 11.3048 13.0798 11.5102C12.9981 11.7155 12.8382 11.88 12.6352 11.9675C12.4322 12.0549 12.2028 12.0582 11.9975 11.9765C11.7921 11.8948 11.6276 11.7349 11.5402 11.5319C11.0937 10.4957 9.87718 10.0099 8.81339 10.4682ZM11.3796 9.05315C10.8843 8.79538 10.3378 8.65126 9.77979 8.63127C9.2218 8.61127 8.66637 8.71591 8.15391 8.93757C6.25897 9.754 5.36614 11.9444 6.1829 13.8401C6.92515 15.5628 8.58363 16.7438 10.2629 17.5665C11.9664 18.4014 13.8472 18.9421 15.2391 19.3043C15.4185 19.3509 15.6083 19.3364 15.7785 19.2631C15.9487 19.1897 16.0896 19.0618 16.1789 18.8994C16.8718 17.639 17.7703 15.8999 18.334 14.0891C18.8895 12.3035 19.1703 10.287 18.428 8.56427C17.6113 6.66857 15.4061 5.81297 13.5112 6.6294C12.4321 7.09433 11.6777 8.00552 11.3796 9.05315Z" fill="#005703" fill-opacity="0.8"/>
</svg>
