<svg width="13" height="13" viewBox="0 0 13 13" fill="none" xmlns="http://www.w3.org/2000/svg">
<g id="Heart">
<path id="Vector" fill-rule="evenodd" clip-rule="evenodd" d="M4.60419 3.79171C3.85127 3.79171 3.25002 4.39459 3.25002 5.128C3.25002 5.9535 3.72777 6.83425 4.4666 7.69713C5.08735 8.42134 5.84135 9.07458 6.50002 9.60163C7.15869 9.07458 7.91269 8.42079 8.53344 7.69713C9.27227 6.83425 9.75002 5.95296 9.75002 5.128C9.75002 4.39459 9.14877 3.79171 8.39585 3.79171C7.64294 3.79171 7.04169 4.39459 7.04169 5.128C7.04169 5.27166 6.98462 5.40944 6.88304 5.51102C6.78145 5.6126 6.64368 5.66967 6.50002 5.66967C6.35636 5.66967 6.21859 5.6126 6.117 5.51102C6.01542 5.40944 5.95835 5.27166 5.95835 5.128C5.95835 4.39459 5.3571 3.79171 4.60419 3.79171ZM6.50002 3.607C6.27066 3.32574 5.98148 3.09915 5.65353 2.9437C5.32559 2.78825 4.96711 2.70786 4.60419 2.70838C3.26302 2.70838 2.16669 3.78629 2.16669 5.128C2.16669 6.34729 2.85298 7.47884 3.64381 8.40183C4.44602 9.33838 5.42969 10.1449 6.16744 10.7191C6.26252 10.7931 6.37955 10.8332 6.50002 10.8332C6.62049 10.8332 6.73752 10.7931 6.8326 10.7191C7.57035 10.1449 8.55402 9.33783 9.35623 8.40183C10.1471 7.47884 10.8334 6.34729 10.8334 5.128C10.8334 3.78629 9.73702 2.70838 8.39585 2.70838C7.6321 2.70838 6.94744 3.05829 6.50002 3.607Z" fill="#005703" fill-opacity="0.8"/>
</g>
</svg>
