<svg width="328" height="229" viewBox="0 0 328 229" fill="none" xmlns="http://www.w3.org/2000/svg">
<rect width="328" height="229" rx="40" fill="#004C86" fill-opacity="0.9"/>
<path d="M127.822 94.28L127.462 94.24L127.302 94.04L126.382 93.96L126.222 93.8C126.222 93.6933 126.169 93.5733 126.062 93.44L125.902 93.2C125.902 93.1733 125.875 93.0933 125.822 92.96C125.795 92.8267 125.782 92.7333 125.782 92.68V92.28C125.782 92.0133 125.782 91.7333 125.782 91.44C125.782 91.12 125.822 90.7333 125.902 90.28C125.902 90.1733 125.942 89.9333 126.022 89.56C126.129 89.1867 126.182 88.9467 126.182 88.84L126.222 88.48L126.422 88.32C126.422 88.2933 126.395 88.1733 126.342 87.96L126.262 87.72C125.969 87.72 125.649 87.72 125.302 87.72C124.955 87.6933 124.675 87.6533 124.462 87.6C124.435 87.6 124.289 87.6267 124.022 87.68L123.742 87.76L123.662 88.68C123.662 88.76 123.609 88.96 123.502 89.28C123.422 89.6 123.382 89.8 123.382 89.88C123.382 90.7333 123.342 91.4133 123.262 91.92C123.182 92.4 123.089 92.7733 122.982 93.04C122.902 93.3067 122.822 93.4933 122.742 93.6C122.662 93.68 122.622 93.72 122.622 93.72H122.422C122.289 93.72 122.169 93.7067 122.062 93.68C121.955 93.6533 121.835 93.64 121.702 93.64H121.502L121.102 93.28L120.102 93.16L119.902 93L120.422 85.32L120.662 84.96L120.462 84.76C120.569 84.2267 120.595 83.7467 120.542 83.32C120.489 82.8667 120.582 82.4533 120.822 82.08L120.982 81.68C120.982 81.0133 121.075 80.5067 121.262 80.16C121.475 79.7867 121.689 79.4533 121.902 79.16L122.062 78.72C122.089 78.7467 122.155 78.76 122.262 78.76H122.942L123.142 78.88C123.249 78.9333 123.342 78.9733 123.422 79C123.502 79.0267 123.595 79.0667 123.702 79.12L123.822 79.2C123.929 79.3067 124.035 79.44 124.142 79.6C124.275 79.76 124.342 79.88 124.342 79.96C124.342 80.6533 124.315 81.2133 124.262 81.64C124.209 82.04 124.155 82.48 124.102 82.96L124.022 83.76C124.022 84.08 123.969 84.3867 123.862 84.68C123.755 84.9733 123.702 85.2667 123.702 85.56L125.542 85.72L126.102 85.2L126.302 85C126.755 84.5467 127.102 83.9467 127.342 83.2C127.609 82.4533 127.742 81.5867 127.742 80.6V80.44C127.742 80.3067 127.715 80.1867 127.662 80.08C127.635 79.9467 127.622 79.8 127.622 79.64L128.022 79.16L128.062 78.96C128.062 78.9333 128.115 78.8667 128.222 78.76L128.422 78.64H129.142L129.382 78.56H130.782L130.942 78.76C131.022 78.8667 131.089 78.9867 131.142 79.12C131.195 79.2533 131.222 79.3867 131.222 79.52C131.249 79.6533 131.262 79.76 131.262 79.84C131.262 79.92 131.262 79.9467 131.262 79.92C131.262 79.9733 131.262 80.0267 131.262 80.08C131.262 80.1067 131.249 80.1867 131.222 80.32L130.982 80.84C130.982 80.8933 130.969 80.9733 130.942 81.08C130.915 81.16 130.889 81.2533 130.862 81.36L130.782 81.72C130.782 82.2267 130.742 82.7467 130.662 83.28C130.582 83.7867 130.489 84.28 130.382 84.76C130.275 85.2133 130.182 85.64 130.102 86.04C130.022 86.4133 129.982 86.7067 129.982 86.92C129.982 87.8267 129.862 88.6933 129.622 89.52C129.409 90.32 129.302 90.96 129.302 91.44L129.102 91.8C129.102 91.9067 129.115 92.16 129.142 92.56C129.169 92.9333 129.182 93.1733 129.182 93.28L129.142 93.44C129.142 93.44 129.115 93.52 129.062 93.68L128.982 93.8C128.929 93.88 128.915 93.9867 128.942 94.12C128.969 94.2533 128.955 94.4533 128.902 94.72L128.702 94.68L128.422 94.48L128.302 94.2C128.249 94.1467 128.195 94.0933 128.142 94.04C128.115 93.9867 128.075 93.9467 128.022 93.92H127.822V94.28ZM106.102 89.32C106.102 88.8133 106.222 88.44 106.462 88.2C106.729 87.96 107.089 87.84 107.542 87.84C107.622 87.7867 107.809 87.6667 108.102 87.48C108.395 87.2933 108.702 87.08 109.022 86.84C109.369 86.5733 109.675 86.3067 109.942 86.04C110.209 85.7467 110.342 85.4933 110.342 85.28L110.222 85.16C110.249 85.1067 110.342 84.92 110.502 84.6C110.689 84.2533 110.875 83.9467 111.062 83.68C111.062 83.5467 111.102 83.4 111.182 83.24C111.289 83.0533 111.395 82.8667 111.502 82.68C111.609 82.4667 111.702 82.2667 111.782 82.08C111.889 81.8933 111.942 81.72 111.942 81.56L111.822 81.44C111.849 81.44 111.929 81.4 112.062 81.32C112.195 81.24 112.262 81.1333 112.262 81C112.262 80.9733 112.182 80.88 112.022 80.72C112.129 80.6667 112.169 80.5467 112.142 80.36C112.142 80.1733 112.209 79.9733 112.342 79.76C112.315 79.7333 112.302 79.6667 112.302 79.56C112.302 79.2667 112.422 78.9867 112.662 78.72C112.902 78.4267 113.022 78.1733 113.022 77.96C113.155 77.6667 113.222 77.3733 113.222 77.08C113.222 76.92 113.209 76.7867 113.182 76.68C113.155 76.5733 113.142 76.4933 113.142 76.44C113.142 76.3067 113.249 76.24 113.462 76.24C113.649 76.24 113.809 76.2533 113.942 76.28C114.049 76.3867 114.195 76.44 114.382 76.44C114.569 76.4133 114.782 76.4267 115.022 76.48C115.289 76.5067 115.569 76.6133 115.862 76.8C116.182 76.96 116.502 77.2667 116.822 77.72V77.76C116.822 77.8933 116.769 78.04 116.662 78.2C116.555 78.3333 116.502 78.4267 116.502 78.48C116.502 78.5867 116.515 78.6667 116.542 78.72C116.569 78.7733 116.582 78.8667 116.582 79C116.529 79.1333 116.422 79.32 116.262 79.56C116.129 79.7733 116.062 79.9733 116.062 80.16L116.182 80.48C116.182 80.96 116.142 81.3467 116.062 81.64C116.009 81.9333 115.942 82.1867 115.862 82.4C115.809 82.5867 115.742 82.7467 115.662 82.88C115.609 83.0133 115.582 83.1467 115.582 83.28C115.582 83.36 115.622 83.4267 115.702 83.48C115.809 83.5067 115.862 83.5867 115.862 83.72C115.862 83.9333 115.782 84.1467 115.622 84.36C115.462 84.5733 115.355 84.7067 115.302 84.76C115.355 84.8667 115.422 84.9333 115.502 84.96C115.609 84.96 115.689 85 115.742 85.08C115.609 85.08 115.489 85.0933 115.382 85.12C115.275 85.1467 115.222 85.2667 115.222 85.48C115.275 85.4267 115.342 85.3867 115.422 85.36C115.529 85.3067 115.595 85.28 115.622 85.28L115.302 85.72C115.222 85.8 115.142 85.8933 115.062 86C115.009 86.1067 114.915 86.2133 114.782 86.32C114.782 86.5333 114.795 86.6667 114.822 86.72C114.849 86.7467 114.902 86.8 114.982 86.88L114.902 86.96C114.849 86.96 114.769 87 114.662 87.08C114.582 87.16 114.515 87.2 114.462 87.2V87.28H117.742C117.769 87.3067 117.849 87.3333 117.982 87.36C118.115 87.3867 118.262 87.4267 118.422 87.48C118.609 87.5333 118.769 87.6 118.902 87.68C119.035 87.7333 119.115 87.8133 119.142 87.92C118.902 88.24 118.702 88.4267 118.542 88.48C118.409 88.5067 118.329 88.6133 118.302 88.8C117.395 88.8267 116.689 88.8933 116.182 89C115.702 89.08 115.275 89.1733 114.902 89.28C114.555 89.36 114.182 89.44 113.782 89.52C113.409 89.6 112.862 89.64 112.142 89.64C111.769 89.64 111.342 89.7467 110.862 89.96C110.409 90.1733 109.875 90.28 109.262 90.28C108.835 90.28 108.449 90.3333 108.102 90.44C107.755 90.5467 107.395 90.6667 107.022 90.8C106.809 90.8 106.649 90.76 106.542 90.68C106.462 90.5733 106.395 90.4533 106.342 90.32C106.315 90.16 106.289 90 106.262 89.84C106.235 89.68 106.182 89.5333 106.102 89.4V89.32ZM117.382 99.76L117.462 99.48C117.489 99.4 117.515 99.32 117.542 99.24C117.569 99.16 117.582 99.0933 117.582 99.04C117.635 98.9867 117.702 98.88 117.782 98.72C117.889 98.5333 117.982 98.3467 118.062 98.16C118.142 97.9467 118.222 97.7467 118.302 97.56C118.409 97.3733 118.489 97.2533 118.542 97.2C118.542 97.12 118.609 96.9733 118.742 96.76L118.982 96.48C119.249 96.2933 119.515 96.0667 119.782 95.8C120.049 95.5067 120.315 95.28 120.582 95.12L120.822 94.88H121.542C121.889 95.04 122.235 95.24 122.582 95.48C122.929 95.72 123.235 95.9467 123.502 96.16C123.769 96.3733 123.982 96.56 124.142 96.72C124.329 96.88 124.435 96.9733 124.462 97L125.462 97.88L125.942 98.84L126.382 99.52L126.622 99.76V100C126.622 100.053 126.609 100.133 126.582 100.24C126.555 100.373 126.529 100.507 126.502 100.64L126.382 101.16L126.142 101.52C126.009 101.733 125.929 101.96 125.902 102.2C125.902 102.44 125.755 102.627 125.462 102.76L124.302 103.96H123.622L123.142 104.16L122.942 103.96H121.542L121.142 103.84C120.982 103.787 120.715 103.667 120.342 103.48C119.969 103.32 119.675 103.24 119.462 103.24L118.742 102.76L117.582 101.6L117.382 101.16V99.76ZM109.702 94.76C109.755 94.3867 109.835 94.04 109.942 93.72C110.022 93.4267 110.102 93.16 110.182 92.92C110.289 92.6533 110.409 92.4533 110.542 92.32C110.569 92.32 110.635 92.2133 110.742 92C110.875 91.76 111.022 91.5067 111.182 91.24C111.342 90.9467 111.489 90.68 111.622 90.44C111.782 90.2 111.889 90.08 111.942 90.08C112.129 90.1333 112.262 90.1733 112.342 90.2C112.449 90.2 112.542 90.2133 112.622 90.24C112.702 90.2667 112.795 90.32 112.902 90.4C113.009 90.4533 113.182 90.56 113.422 90.72C113.502 90.8267 113.635 90.8933 113.822 90.92C114.009 90.92 114.209 90.9467 114.422 91C114.635 91.0267 114.849 91.0933 115.062 91.2C115.275 91.3067 115.435 91.5067 115.542 91.8C115.649 91.9067 115.715 92.08 115.742 92.32C115.795 92.5333 115.849 92.64 115.902 92.64H115.942V95.08C115.809 95.2133 115.742 95.3333 115.742 95.44V95.52C115.609 95.5467 115.542 95.6533 115.542 95.84C115.542 96.0267 115.435 96.12 115.222 96.12C115.195 96.1467 114.955 96.28 114.502 96.52C114.049 96.76 113.435 96.88 112.662 96.88H112.542C112.489 96.88 112.355 96.9067 112.142 96.96C112.035 96.9867 111.942 97.0133 111.862 97.04C111.809 97.04 111.649 96.9867 111.382 96.88H111.302C111.195 96.88 111.049 96.84 110.862 96.76C110.675 96.68 110.489 96.5733 110.302 96.44C110.142 96.28 109.995 96.1067 109.862 95.92C109.755 95.7067 109.702 95.4667 109.702 95.2V94.76ZM120.822 101.84H121.542L121.982 101.6C122.062 101.6 122.209 101.533 122.422 101.4L122.702 101.16C122.915 101.027 123.035 100.853 123.062 100.64C123.115 100.427 123.142 100.213 123.142 100V99.76C123.142 99.6267 123.062 99.4667 122.902 99.28C122.769 99.0933 122.702 98.9467 122.702 98.84L122.222 98.36C122.089 98.44 121.942 98.56 121.782 98.72C121.622 98.8533 121.542 98.96 121.542 99.04L121.422 99.2C121.369 99.2533 121.302 99.36 121.222 99.52C121.142 99.68 121.062 99.8667 120.982 100.08C120.902 100.293 120.822 100.493 120.742 100.68C120.689 100.893 120.649 101.053 120.622 101.16V101.6L120.822 101.84ZM112.462 94.12C112.462 94.4133 112.475 94.6267 112.502 94.76C112.555 94.8667 112.609 94.9467 112.662 95C112.715 95.0267 112.769 95.0267 112.822 95C112.875 94.9733 112.929 94.96 112.982 94.96C113.062 94.96 113.142 94.96 113.222 94.96C113.302 94.9333 113.395 94.8667 113.502 94.76H113.542C113.675 94.5733 113.795 94.4 113.902 94.24C114.009 94.1067 114.102 93.9733 114.182 93.84C114.262 93.7067 114.302 93.6133 114.302 93.56C114.302 93.4533 114.209 93.3067 114.022 93.12C113.835 92.9067 113.555 92.7067 113.182 92.52C112.995 92.52 112.835 92.7067 112.702 93.08C112.595 93.4267 112.515 93.7733 112.462 94.12ZM120.382 100L120.142 100.44V101.16L120.622 99.76L120.382 100ZM110.862 84.84L111.062 84.36L110.782 84.6L110.862 84.84ZM116.382 79.96C116.382 80.04 116.342 80.08 116.262 80.08H116.222C116.222 79.9733 116.262 79.92 116.342 79.92L116.382 79.96ZM141.213 77.56C141.213 77.4267 141.253 77.2 141.333 76.88C141.44 76.56 141.493 76.3333 141.493 76.2L141.413 75.96L141.653 75.28C141.653 75.0133 141.666 74.7067 141.693 74.36C141.746 74.0133 141.786 73.6933 141.813 73.4C141.866 73.1067 141.92 72.8533 141.973 72.64C142.026 72.4267 142.053 72.3067 142.053 72.28L142.173 71.76L142.653 71.68C142.786 71.6533 142.906 71.6267 143.013 71.6C143.12 71.5733 143.2 71.56 143.253 71.56H144.173C144.226 71.56 144.293 71.5733 144.373 71.6C144.453 71.6267 144.533 71.6533 144.613 71.68L144.853 71.76L145.333 72.24L145.413 72.72C145.44 72.8533 145.453 72.9733 145.453 73.08C145.48 73.1867 145.493 73.2667 145.493 73.32V73.76L145.053 75.28V75.52H146.573C146.706 75.52 146.866 75.48 147.053 75.4C147.266 75.32 147.426 75.28 147.533 75.28C147.533 75.2 147.56 75.04 147.613 74.8C147.666 74.5333 147.72 74.2533 147.773 73.96C147.826 73.6667 147.88 73.4 147.933 73.16C147.986 72.92 148.013 72.7733 148.013 72.72V71.76C148.146 71.76 148.32 71.72 148.533 71.64C148.773 71.56 148.96 71.52 149.093 71.52L149.333 71.6L149.533 71.56L149.933 71.8C150.146 71.9333 150.333 72 150.493 72L150.733 72.24L150.933 72.88L150.733 74.88V76.6C150.733 76.68 150.693 76.7467 150.613 76.8C150.56 76.8267 150.533 76.8533 150.533 76.88L150.733 77.28V80.4L151.173 80.6L151.373 81.04L151.173 81.28V82.16C151.04 82.16 150.84 82.2 150.573 82.28C150.333 82.36 150.146 82.4 150.013 82.4H149.373L148.453 82.16C148.453 82.2933 148.413 82.44 148.333 82.6C148.253 82.7333 148.213 82.8267 148.213 82.88C148.213 82.9067 148.226 82.92 148.253 82.92L148.453 83.44C148.453 83.7867 148.32 83.96 148.053 83.96L148.253 84.08C148.2 84.1333 148.106 84.1867 147.973 84.24C147.84 84.2667 147.773 84.36 147.773 84.52C147.773 84.6533 147.8 84.7867 147.853 84.92C147.933 85.0533 147.973 85.16 147.973 85.24C147.973 85.4267 147.906 85.6267 147.773 85.84C147.64 86.0533 147.48 86.4533 147.293 87.04C147.24 87.1733 147.146 87.5733 147.013 88.24C146.88 88.88 146.733 89.5733 146.573 90.32C146.413 91.04 146.266 91.7067 146.133 92.32C146.026 92.9333 145.973 93.2533 145.973 93.28L146.173 93.16C146.173 93.32 146.12 93.4667 146.013 93.6L145.853 93.8C145.853 93.9067 145.893 94.0133 145.973 94.12L145.853 94.32C145.853 94.48 145.853 94.6267 145.853 94.76C145.853 94.8933 145.893 95 145.973 95.08L145.853 95.4C146.226 95.4 146.706 95.36 147.293 95.28C147.88 95.1733 148.466 95.0667 149.053 94.96C149.666 94.8533 150.226 94.76 150.733 94.68C151.24 94.5733 151.6 94.52 151.813 94.52C152.4 94.52 152.786 94.5733 152.973 94.68C153.186 94.7867 153.4 94.88 153.613 94.96C153.56 95.0133 153.52 95.1333 153.493 95.32C153.493 95.5067 153.386 95.6 153.173 95.6C153.226 95.6533 153.28 95.7067 153.333 95.76C153.386 95.8133 153.44 95.84 153.493 95.84C153.546 95.84 153.586 95.8267 153.613 95.8L153.493 95.92C153.44 95.92 153.373 95.9733 153.293 96.08C153.213 96.1867 153.146 96.24 153.093 96.24V96.04C153.066 96.0133 153.04 96 153.013 96C152.986 96 152.96 96.0267 152.933 96.08C152.933 96.1333 152.906 96.1867 152.853 96.24C152.853 96.2933 152.866 96.3733 152.893 96.48C152.946 96.56 152.973 96.6267 152.973 96.68C152.866 96.68 152.813 96.68 152.813 96.68C152.84 96.6533 152.826 96.6133 152.773 96.56C152.666 96.56 152.573 96.6267 152.493 96.76C152.44 96.8933 152.386 96.9733 152.333 97C152.333 97.0533 152.373 97.12 152.453 97.2C152.453 97.3067 152.4 97.4 152.293 97.48C152.186 97.5333 152.106 97.56 152.053 97.56C152 97.56 151.92 97.5067 151.813 97.4C151.6 97.5067 151.466 97.56 151.413 97.56C151.386 97.56 151.36 97.56 151.333 97.56C151.333 97.5333 151.32 97.52 151.293 97.52C151.24 97.52 151.013 97.5333 150.613 97.56C150.213 97.5867 149.706 97.64 149.093 97.72C148.506 97.7733 147.853 97.8533 147.133 97.96C146.413 98.0667 145.706 98.2 145.013 98.36C144.96 98.3867 144.8 98.44 144.533 98.52C144.266 98.5733 143.973 98.6533 143.653 98.76C143.36 98.84 143.08 98.9333 142.813 99.04C142.546 99.1467 142.4 99.24 142.373 99.32C142.373 99.3467 142.306 99.36 142.173 99.36C142.04 99.36 141.866 99.3733 141.653 99.4C141.466 99.4267 141.253 99.4933 141.013 99.6C140.773 99.7067 140.546 99.8667 140.333 100.08L140.253 100.16C140.2 100.213 140.04 100.293 139.773 100.4C139.506 100.533 139.36 100.6 139.333 100.6C139.28 100.6 139.173 100.627 139.013 100.68C138.88 100.76 138.72 100.84 138.533 100.92C138.373 101.027 138.2 101.107 138.013 101.16C137.853 101.24 137.72 101.28 137.613 101.28C137.56 101.28 137.52 101.267 137.493 101.24C137.36 101.373 137.026 101.547 136.493 101.76C135.96 101.973 135.466 102.08 135.013 102.08C134.56 102.08 134.333 101.92 134.333 101.6C134.333 101.467 134.36 101.347 134.413 101.24C134.013 101.053 133.733 100.827 133.573 100.56C133.413 100.32 133.333 100.053 133.333 99.76L133.533 98.88C133.613 98.7733 133.653 98.6667 133.653 98.56C133.653 98.4267 133.84 98.2267 134.213 97.96C134.24 97.96 134.36 97.92 134.573 97.84C134.786 97.76 135.013 97.68 135.253 97.6C135.52 97.4933 135.76 97.4 135.973 97.32C136.213 97.24 136.36 97.2 136.413 97.2C136.44 97.1733 136.52 97.1467 136.653 97.12C136.786 97.0667 136.933 97.0133 137.093 96.96C137.253 96.88 137.4 96.8 137.533 96.72C137.693 96.64 137.813 96.5467 137.893 96.44C138.106 96.44 138.253 96.36 138.333 96.2C138.413 96.0133 138.533 95.92 138.693 95.92C138.72 95.9467 138.746 95.96 138.773 95.96C138.906 95.96 139.013 95.8267 139.093 95.56C139.2 95.2933 139.28 95.1333 139.333 95.08L139.493 94.64C139.466 94.6133 139.453 94.5867 139.453 94.56C139.453 94.5067 139.466 94.4667 139.493 94.44C139.52 94.3867 139.56 94.32 139.613 94.24L139.693 94.32C139.88 94.32 139.973 94.2667 139.973 94.16C140 94.0267 140.013 93.9067 140.013 93.8L139.813 93.48C139.786 93.4533 139.773 93.4267 139.773 93.4C139.773 93.2667 139.88 93.1467 140.093 93.04C140.306 92.9067 140.466 92.6933 140.573 92.4C140.733 92.32 140.88 92.0533 141.013 91.6C141.146 91.12 141.28 90.6133 141.413 90.08C141.546 89.52 141.68 89 141.813 88.52C141.946 88.0133 142.08 87.6933 142.213 87.56C142.213 87.4533 142.186 87.3333 142.133 87.2C142.08 87.0667 142.053 86.9467 142.053 86.84C142.053 86.7867 142.08 86.7067 142.133 86.6C142.213 86.4667 142.293 86.3333 142.373 86.2C142.453 86.04 142.533 85.9067 142.613 85.8C142.693 85.6933 142.76 85.6133 142.813 85.56C142.786 85.56 142.773 85.5467 142.773 85.52C142.773 85.4667 142.893 85.3067 143.133 85.04C143.373 84.7733 143.493 84.4533 143.493 84.08L143.573 83.96H143.373C143.373 83.8533 143.44 83.64 143.573 83.32L143.253 82.96H142.813L142.533 82.84C142.32 82.7333 142.2 82.6133 142.173 82.48L141.933 82.32C141.933 82.2667 141.893 82.2 141.813 82.12C141.76 82.04 141.706 81.96 141.653 81.88L141.413 81.64C141.413 81.5867 141.4 81.48 141.373 81.32C141.346 81.16 141.32 80.9867 141.293 80.8L141.213 80.16L141.413 78.48L141.213 77.56ZM145.653 108.24C145.653 107.547 145.626 106.84 145.573 106.12C145.546 105.4 145.533 104.867 145.533 104.52C145.533 104.227 145.546 103.893 145.573 103.52C145.626 103.173 145.653 102.907 145.653 102.72C145.253 102.72 144.933 102.773 144.693 102.88C144.48 102.987 144.28 103.093 144.093 103.2C143.933 103.333 143.733 103.44 143.493 103.52C143.28 103.627 142.96 103.68 142.533 103.68C141.84 103.68 141.346 103.64 141.053 103.56C140.786 103.507 140.48 103.333 140.133 103.04L140.253 102.92C140.2 102.92 140.133 102.867 140.053 102.76C139.973 102.653 139.933 102.573 139.933 102.52V102.4C139.933 102.267 139.973 102.08 140.053 101.84C140.133 101.6 140.2 101.467 140.253 101.44H140.973C141.746 101.147 142.52 100.907 143.293 100.72C144.066 100.533 144.853 100.24 145.653 99.84H148.213L149.053 100.08C149.053 100.107 149.08 100.187 149.133 100.32C149.213 100.48 149.253 100.613 149.253 100.72C149.226 100.773 149.213 100.8 149.213 100.8L149.133 100.72C149.106 100.88 149.08 101 149.053 101.08C149.053 101.187 149.053 101.267 149.053 101.32C149.053 101.4 149.12 101.44 149.253 101.44C149.253 102.187 149.186 102.733 149.053 103.08C148.946 103.453 148.893 103.747 148.893 103.96C148.893 104.04 148.906 104.093 148.933 104.12C148.933 104.173 148.893 104.32 148.813 104.56C148.733 104.827 148.666 104.987 148.613 105.04V107.92C148.613 108.267 148.546 108.533 148.413 108.72C148.28 108.933 148.213 109.16 148.213 109.4H147.973L147.853 109.84C147.746 109.84 147.56 109.773 147.293 109.64C147.026 109.533 146.813 109.48 146.653 109.48C146.573 109.48 146.52 109.493 146.493 109.52C146.493 109.44 146.44 109.373 146.333 109.32C146.253 109.293 146.16 109.24 146.053 109.16C145.973 109.107 145.88 109.013 145.773 108.88C145.693 108.747 145.653 108.533 145.653 108.24ZM144.613 78.2C144.613 78.3333 144.573 78.6533 144.493 79.16C144.44 79.64 144.386 80.1467 144.333 80.68C144.786 80.6267 145.226 80.5733 145.653 80.52C146.106 80.44 146.373 80.4 146.453 80.4H147.093L147.333 80.16V77.56H146.573C146.493 77.56 146.333 77.6133 146.093 77.72L145.693 77.84L145.333 78.2H144.613ZM152.533 96.88C152.586 96.88 152.613 96.92 152.613 97C152.613 97.0533 152.586 97.08 152.533 97.08C152.48 97.08 152.453 97.0533 152.453 97C152.453 96.92 152.48 96.88 152.533 96.88ZM153.093 96.36C153.12 96.36 153.133 96.4 153.133 96.48C153.133 96.5333 153.12 96.56 153.093 96.56C153.04 96.56 153.013 96.5333 153.013 96.48C153.013 96.4 153.04 96.36 153.093 96.36ZM148.493 84.28L148.293 84.4V84.28H148.493ZM143.573 84.84C143.573 84.8133 143.56 84.8 143.533 84.8C143.453 84.8 143.413 84.84 143.413 84.92H143.453C143.533 84.92 143.573 84.8933 143.573 84.84ZM143.133 86.12C143.133 86.0933 143.12 86.08 143.093 86.08C143.013 86.08 142.973 86.12 142.973 86.2H143.013C143.093 86.2 143.133 86.1733 143.133 86.12ZM155.086 91.72C155.086 91.2133 155.206 90.84 155.446 90.6C155.713 90.36 156.073 90.24 156.526 90.24C156.606 90.1867 156.793 90.0667 157.086 89.88C157.38 89.6933 157.686 89.48 158.006 89.24C158.353 88.9733 158.66 88.7067 158.926 88.44C159.193 88.1467 159.326 87.8933 159.326 87.68L159.206 87.56C159.233 87.5067 159.326 87.32 159.486 87C159.673 86.6533 159.86 86.3467 160.046 86.08C160.046 85.9467 160.086 85.8 160.166 85.64C160.273 85.4533 160.38 85.2667 160.486 85.08C160.593 84.8667 160.686 84.6667 160.766 84.48C160.873 84.2933 160.926 84.12 160.926 83.96L160.806 83.84C160.833 83.84 160.913 83.8 161.046 83.72C161.18 83.64 161.246 83.5333 161.246 83.4C161.246 83.3733 161.166 83.28 161.006 83.12C161.113 83.0667 161.153 82.9467 161.126 82.76C161.126 82.5733 161.193 82.3733 161.326 82.16C161.3 82.1333 161.286 82.0667 161.286 81.96C161.286 81.6667 161.406 81.3867 161.646 81.12C161.886 80.8267 162.006 80.5733 162.006 80.36C162.14 80.0667 162.206 79.7733 162.206 79.48C162.206 79.32 162.193 79.1867 162.166 79.08C162.14 78.9733 162.126 78.8933 162.126 78.84C162.126 78.7067 162.233 78.64 162.446 78.64C162.633 78.64 162.793 78.6533 162.926 78.68C163.033 78.7867 163.18 78.84 163.366 78.84C163.553 78.8133 163.766 78.8267 164.006 78.88C164.273 78.9067 164.553 79.0133 164.846 79.2C165.166 79.36 165.486 79.6667 165.806 80.12V80.16C165.806 80.2933 165.753 80.44 165.646 80.6C165.54 80.7333 165.486 80.8267 165.486 80.88C165.486 80.9867 165.5 81.0667 165.526 81.12C165.553 81.1733 165.566 81.2667 165.566 81.4C165.513 81.5333 165.406 81.72 165.246 81.96C165.113 82.1733 165.046 82.3733 165.046 82.56L165.166 82.88C165.166 83.36 165.126 83.7467 165.046 84.04C164.993 84.3333 164.926 84.5867 164.846 84.8C164.793 84.9867 164.726 85.1467 164.646 85.28C164.593 85.4133 164.566 85.5467 164.566 85.68C164.566 85.76 164.606 85.8267 164.686 85.88C164.793 85.9067 164.846 85.9867 164.846 86.12C164.846 86.3333 164.766 86.5467 164.606 86.76C164.446 86.9733 164.34 87.1067 164.286 87.16C164.34 87.2667 164.406 87.3333 164.486 87.36C164.593 87.36 164.673 87.4 164.726 87.48C164.593 87.48 164.473 87.4933 164.366 87.52C164.26 87.5467 164.206 87.6667 164.206 87.88C164.26 87.8267 164.326 87.7867 164.406 87.76C164.513 87.7067 164.58 87.68 164.606 87.68L164.286 88.12C164.206 88.2 164.126 88.2933 164.046 88.4C163.993 88.5067 163.9 88.6133 163.766 88.72C163.766 88.9333 163.78 89.0667 163.806 89.12C163.833 89.1467 163.886 89.2 163.966 89.28L163.886 89.36C163.833 89.36 163.753 89.4 163.646 89.48C163.566 89.56 163.5 89.6 163.446 89.6V89.68H166.726C166.753 89.7067 166.833 89.7333 166.966 89.76C167.1 89.7867 167.246 89.8267 167.406 89.88C167.593 89.9333 167.753 90 167.886 90.08C168.02 90.1333 168.1 90.2133 168.126 90.32C167.886 90.64 167.686 90.8267 167.526 90.88C167.393 90.9067 167.313 91.0133 167.286 91.2C166.38 91.2267 165.673 91.2933 165.166 91.4C164.686 91.48 164.26 91.5733 163.886 91.68C163.54 91.76 163.166 91.84 162.766 91.92C162.393 92 161.846 92.04 161.126 92.04C160.753 92.04 160.326 92.1467 159.846 92.36C159.393 92.5733 158.86 92.68 158.246 92.68C157.82 92.68 157.433 92.7333 157.086 92.84C156.74 92.9467 156.38 93.0667 156.006 93.2C155.793 93.2 155.633 93.16 155.526 93.08C155.446 92.9733 155.38 92.8533 155.326 92.72C155.3 92.56 155.273 92.4 155.246 92.24C155.22 92.08 155.166 91.9333 155.086 91.8V91.72ZM171.206 95.4C171.073 95.32 171.006 95.2667 171.006 95.24C171.006 95.2133 170.953 95.2 170.846 95.2L170.726 95.36C170.673 95.52 170.646 95.6133 170.646 95.64L170.406 95.44L170.526 95.2C170.473 95.1733 170.42 95.16 170.366 95.16C170.34 95.1333 170.286 95.12 170.206 95.12C170.153 95.1733 170.126 95.2133 170.126 95.24C170.126 95.2667 170.086 95.28 170.006 95.28V94.96C169.98 94.96 169.953 94.9733 169.926 95C169.926 95 169.913 95 169.886 95C169.78 95 169.673 94.9867 169.566 94.96C169.46 94.9067 169.353 94.88 169.246 94.88V94.64H169.166C169.06 94.64 168.953 94.68 168.846 94.76C168.686 94.6 168.566 94.4 168.486 94.16C168.406 93.92 168.34 93.7733 168.286 93.72C168.473 93.6133 168.566 93.4667 168.566 93.28C168.593 93.0667 168.606 92.8533 168.606 92.64H168.726C168.726 92.4267 168.753 92.2533 168.806 92.12C168.886 91.96 168.926 91.8133 168.926 91.68L168.726 91.8L169.166 90.84C169.246 90.76 169.3 90.6533 169.326 90.52C169.353 90.36 169.366 90.2 169.366 90.04C169.393 89.88 169.42 89.7333 169.446 89.6C169.473 89.4667 169.513 89.3867 169.566 89.36C169.673 89.36 169.713 89.3867 169.686 89.44C169.66 89.4667 169.7 89.48 169.806 89.48C169.86 89.48 169.926 89.4267 170.006 89.32C170.086 89.2133 170.113 89.1467 170.086 89.12C170.086 89.0933 170.073 89.0533 170.046 89C170.02 88.92 170.006 88.8533 170.006 88.8C169.98 88.9333 169.913 89.0133 169.806 89.04C169.726 89.0667 169.646 89.0933 169.566 89.12V89.04C169.566 88.8267 169.606 88.68 169.686 88.6C169.926 88.44 170.073 88.16 170.126 87.76C170.18 87.3333 170.206 86.9733 170.206 86.68H169.886C170.1 86.5467 170.233 86.48 170.286 86.48C170.366 86.48 170.406 86.2933 170.406 85.92C170.38 86.08 170.246 86.2267 170.006 86.36C170.006 86.3067 170.033 86.1733 170.086 85.96C170.166 85.72 170.206 85.5733 170.206 85.52C170.206 85.2 170.193 85.0533 170.166 85.08C170.166 85.08 170.14 85.0533 170.086 85C170.246 84.8667 170.34 84.6533 170.366 84.36C170.393 84.0667 170.406 83.7867 170.406 83.52C170.406 83.3333 170.393 83.2533 170.366 83.28C170.34 83.28 170.326 83.2533 170.326 83.2C170.326 83.04 170.366 82.8133 170.446 82.52C170.526 82.2267 170.633 81.9333 170.766 81.64C170.9 81.3467 171.033 81.0933 171.166 80.88C171.3 80.6667 171.433 80.56 171.566 80.56C171.646 80.56 171.793 80.5867 172.006 80.64C172.033 80.72 172.126 80.8 172.286 80.88C172.446 80.96 172.62 81.0533 172.806 81.16C173.02 81.2667 173.22 81.3867 173.406 81.52C173.593 81.6267 173.726 81.76 173.806 81.92C173.806 82.56 173.713 83.12 173.526 83.6C173.366 84.08 173.286 84.5467 173.286 85C173.286 85.1333 173.286 85.2133 173.286 85.24C173.313 85.24 173.353 85.2667 173.406 85.32C173.326 85.3467 173.246 85.4533 173.166 85.64C173.113 85.8267 173.086 86.04 173.086 86.28H173.166C173.166 86.4933 173.153 86.68 173.126 86.84C173.126 86.9733 173.033 87.1467 172.846 87.36C173.006 87.44 173.246 87.48 173.566 87.48C174.073 87.48 174.62 87.4267 175.206 87.32C175.793 87.2133 176.206 87.16 176.446 87.16C176.713 87.16 177.073 87.28 177.526 87.52C178.006 87.7333 178.366 87.9467 178.606 88.16C178.473 88.3733 178.353 88.56 178.246 88.72C178.166 88.88 178.046 89.0267 177.886 89.16C177.753 89.2933 177.566 89.4 177.326 89.48C177.086 89.5333 176.766 89.56 176.366 89.56H172.966C172.913 89.56 172.86 89.6267 172.806 89.76C172.78 89.8667 172.766 89.9467 172.766 90C172.766 90.1333 172.833 90.2 172.966 90.2L172.846 90.32C172.873 90.32 172.833 90.3467 172.726 90.4C172.646 90.4267 172.606 90.48 172.606 90.56C172.606 90.5867 172.633 90.6133 172.686 90.64C172.74 90.6667 172.766 90.7067 172.766 90.76C172.766 90.8667 172.686 90.9333 172.526 90.96C172.526 91.0667 172.553 91.12 172.606 91.12C172.66 91.0933 172.713 91.1067 172.766 91.16C172.713 91.2933 172.66 91.3867 172.606 91.44C172.553 91.4933 172.526 91.5867 172.526 91.72L172.766 91.6C172.766 91.7333 172.74 91.8133 172.686 91.84C172.66 91.8667 172.646 91.9333 172.646 92.04V92.12L172.206 93.36H172.326L172.166 94.76C172.086 94.8933 172.046 95 172.046 95.08C172.046 95.16 172.02 95.2667 171.966 95.4C171.993 95.4267 172.006 95.4533 172.006 95.48C172.006 95.5333 171.94 95.5733 171.806 95.6C171.7 95.6267 171.58 95.7333 171.446 95.92C171.26 95.8667 171.166 95.7333 171.166 95.52C171.166 95.4667 171.18 95.4267 171.206 95.4ZM158.686 97.16C158.74 96.7867 158.82 96.44 158.926 96.12C159.006 95.8267 159.086 95.56 159.166 95.32C159.273 95.0533 159.393 94.8533 159.526 94.72C159.553 94.72 159.62 94.6133 159.726 94.4C159.86 94.16 160.006 93.9067 160.166 93.64C160.326 93.3467 160.473 93.08 160.606 92.84C160.766 92.6 160.873 92.48 160.926 92.48C161.113 92.5333 161.246 92.5733 161.326 92.6C161.433 92.6 161.526 92.6133 161.606 92.64C161.686 92.6667 161.78 92.72 161.886 92.8C161.993 92.8533 162.166 92.96 162.406 93.12C162.486 93.2267 162.62 93.2933 162.806 93.32C162.993 93.32 163.193 93.3467 163.406 93.4C163.62 93.4267 163.833 93.4933 164.046 93.6C164.26 93.7067 164.42 93.9067 164.526 94.2C164.633 94.3067 164.7 94.48 164.726 94.72C164.78 94.9333 164.833 95.04 164.886 95.04H164.926V97.48C164.793 97.6133 164.726 97.7333 164.726 97.84V97.92C164.593 97.9467 164.526 98.0533 164.526 98.24C164.526 98.4267 164.42 98.52 164.206 98.52C164.18 98.5467 163.94 98.68 163.486 98.92C163.033 99.16 162.42 99.28 161.646 99.28H161.526C161.473 99.28 161.34 99.3067 161.126 99.36C161.02 99.3867 160.926 99.4133 160.846 99.44C160.793 99.44 160.633 99.3867 160.366 99.28H160.286C160.18 99.28 160.033 99.24 159.846 99.16C159.66 99.08 159.473 98.9733 159.286 98.84C159.126 98.68 158.98 98.5067 158.846 98.32C158.74 98.1067 158.686 97.8667 158.686 97.6V97.16ZM167.766 103.28C167.846 103.253 167.886 103.147 167.886 102.96C167.513 102.96 167.233 102.933 167.046 102.88C166.886 102.827 166.753 102.747 166.646 102.64C166.54 102.533 166.433 102.413 166.326 102.28C166.22 102.147 166.06 102.013 165.846 101.88C165.793 101.987 165.74 102.04 165.686 102.04C165.66 102.04 165.646 101.987 165.646 101.88C165.646 101.773 165.686 101.707 165.766 101.68L165.646 101.24C165.646 101.213 165.633 101.187 165.606 101.16C165.606 101.16 165.606 101.147 165.606 101.12C165.606 100.907 165.686 100.64 165.846 100.32C166.006 100.027 166.086 99.7333 166.086 99.44C166.06 99.44 166.046 99.4133 166.046 99.36C166.046 99.2267 166.086 99.0533 166.166 98.84C166.273 98.6267 166.38 98.3867 166.486 98.12C166.62 97.8533 166.74 97.56 166.846 97.24C166.953 96.8933 167.006 96.5333 167.006 96.16H168.406C169.02 96.4533 169.393 96.6933 169.526 96.88C169.686 97.04 169.766 97.1733 169.766 97.28V97.4V97.44C169.766 97.4667 169.74 97.56 169.686 97.72C169.66 97.88 169.62 98.0533 169.566 98.24C169.54 98.4 169.513 98.56 169.486 98.72C169.46 98.88 169.446 98.9733 169.446 99C169.446 99.08 169.433 99.2 169.406 99.36C169.406 99.5467 169.406 99.72 169.406 99.88C169.406 100.067 169.393 100.227 169.366 100.36C169.366 100.52 169.366 100.64 169.366 100.72C170.166 100.72 170.766 100.707 171.166 100.68C171.593 100.653 171.94 100.627 172.206 100.6C172.473 100.6 172.713 100.587 172.926 100.56C173.166 100.533 173.5 100.52 173.926 100.52C173.926 100.573 173.993 100.613 174.126 100.64C174.26 100.667 174.406 100.693 174.566 100.72C174.726 100.773 174.873 100.84 175.006 100.92C175.14 101 175.206 101.107 175.206 101.24C175.1 101.4 175.046 101.52 175.046 101.6C175.073 101.627 175.086 101.653 175.086 101.68C174.9 101.707 174.766 101.76 174.686 101.84C174.633 101.92 174.58 102 174.526 102.08C174.5 102.16 174.473 102.227 174.446 102.28C174.42 102.36 174.353 102.4 174.246 102.4L173.806 102.32C173.726 102.373 173.513 102.4 173.166 102.4H172.526C172.42 102.4 172.26 102.453 172.046 102.56C171.833 102.667 171.58 102.72 171.286 102.72C170.54 102.72 169.94 102.84 169.486 103.08C169.033 103.347 168.713 103.48 168.526 103.48C168.5 103.453 168.366 103.427 168.126 103.4C167.913 103.373 167.793 103.333 167.766 103.28ZM161.446 96.52C161.446 96.8133 161.46 97.0267 161.486 97.16C161.54 97.2667 161.593 97.3467 161.646 97.4C161.7 97.4267 161.753 97.4267 161.806 97.4C161.86 97.3733 161.913 97.36 161.966 97.36C162.046 97.36 162.126 97.36 162.206 97.36C162.286 97.3333 162.38 97.2667 162.486 97.16H162.526C162.66 96.9733 162.78 96.8 162.886 96.64C162.993 96.5067 163.086 96.3733 163.166 96.24C163.246 96.1067 163.286 96.0133 163.286 95.96C163.286 95.8533 163.193 95.7067 163.006 95.52C162.82 95.3067 162.54 95.1067 162.166 94.92C161.98 94.92 161.82 95.1067 161.686 95.48C161.58 95.8267 161.5 96.1733 161.446 96.52ZM170.086 86.92C170.086 87.0533 170.06 87.16 170.006 87.24C169.98 87.2933 169.873 87.32 169.686 87.32C169.686 87.16 169.82 87.0267 170.086 86.92ZM159.846 87.24L160.046 86.76L159.766 87L159.846 87.24ZM174.686 102.08C174.713 102.08 174.726 102.12 174.726 102.2C174.726 102.28 174.713 102.32 174.686 102.32C174.633 102.32 174.606 102.28 174.606 102.2C174.606 102.12 174.633 102.08 174.686 102.08ZM170.006 87.64C170.006 87.72 169.966 87.76 169.886 87.76H169.846C169.846 87.6533 169.886 87.6 169.966 87.6L170.006 87.64ZM165.366 82.36C165.366 82.44 165.326 82.48 165.246 82.48H165.206C165.206 82.3733 165.246 82.32 165.326 82.32L165.366 82.36ZM170.326 88.16L170.406 87.96L170.326 87.84V88.16ZM170.526 94.88C170.526 94.8533 170.5 94.84 170.446 94.84C170.42 94.84 170.406 94.8533 170.406 94.88L170.446 94.96C170.5 94.96 170.526 94.9333 170.526 94.88ZM172.646 89.68L172.766 89.56H172.646V89.68ZM171.966 94.76H172.046L171.966 94.64V94.76ZM171.526 95.6V95.48H171.446L171.526 95.6ZM206.23 98.08L205.83 97.92L205.19 97.44L204.95 97.12C204.95 96.7467 204.923 96.4 204.87 96.08C204.843 95.76 204.83 95.52 204.83 95.36L204.91 92.92L199.99 92.56L199.63 92.36C199.523 92.28 199.403 92.1733 199.27 92.04C199.137 91.88 199.017 91.7467 198.91 91.64L198.59 91.4L198.35 91.64C198.27 91.72 198.15 91.8267 197.99 91.96C197.857 92.0667 197.697 92.2 197.51 92.36C197.323 92.4933 197.15 92.6267 196.99 92.76C196.857 92.8667 196.75 92.96 196.67 93.04L196.35 93.32C196.163 93.5067 195.99 93.6 195.83 93.6L195.27 93.88C195.137 94.0133 194.897 94.1333 194.55 94.24C194.23 94.32 193.91 94.3867 193.59 94.44H191.35C191.27 94.44 191.123 94.4 190.91 94.32C190.697 94.2133 190.47 94.1067 190.23 94C189.99 93.8667 189.763 93.7467 189.55 93.64C189.337 93.5067 189.19 93.4 189.11 93.32L187.99 92.2L187.71 91.64V90.8C187.71 90.2667 187.803 89.7733 187.99 89.32C188.177 88.84 188.27 88.4133 188.27 88.04C188.27 87.7733 188.403 87.3333 188.67 86.72C188.937 86.1067 189.243 85.48 189.59 84.84C189.963 84.2 190.337 83.64 190.71 83.16C191.11 82.68 191.417 82.44 191.63 82.44H192.19C192.457 82.44 192.763 82.5867 193.11 82.88C193.483 83.1467 193.723 83.3333 193.83 83.44L194.15 83.84L194.27 84.16C194.377 84.3467 194.43 84.52 194.43 84.68V85.24C194.51 85.32 194.59 85.3867 194.67 85.44C194.75 85.4933 194.857 85.52 194.99 85.52H195.27C195.35 85.6267 195.537 85.7467 195.83 85.88C196.123 86.0133 196.377 86.1333 196.59 86.24C196.617 86.1867 196.697 86.0933 196.83 85.96C196.963 85.8 197.043 85.7067 197.07 85.68L199.35 85.76L202.31 85.68C202.55 85.7333 202.803 85.8267 203.07 85.96C203.363 86.0667 203.55 86.16 203.63 86.24L203.83 86.44V86.8L204.43 87.56L204.03 87.76C203.977 87.76 203.817 87.7867 203.55 87.84C203.31 87.8667 203.03 87.9067 202.71 87.96C202.39 88.0133 202.057 88.0667 201.71 88.12C201.39 88.1467 201.137 88.16 200.95 88.16L200.07 88.28L198.79 88.16L199.31 88.84L199.47 89.12L199.19 90.24V90.52L199.11 90.64H199.79C199.977 90.64 200.217 90.6133 200.51 90.56C200.83 90.5067 201.137 90.44 201.43 90.36C201.75 90.28 202.017 90.2133 202.23 90.16C202.47 90.1067 202.617 90.08 202.67 90.08L203.79 89.84C203.923 89.8133 204.097 89.7733 204.31 89.72C204.39 89.6933 204.47 89.68 204.55 89.68H204.47C204.87 88.9067 205.217 88.16 205.51 87.44C205.83 86.72 205.99 85.8533 205.99 84.84C205.99 84.8133 206.017 84.64 206.07 84.32C206.123 84 206.19 83.6667 206.27 83.32C206.35 82.9467 206.417 82.6133 206.47 82.32C206.523 82 206.55 81.8133 206.55 81.76C206.55 81.7333 206.537 81.72 206.51 81.72C206.51 81.6933 206.51 81.6667 206.51 81.64C206.51 81.5867 206.51 81.5333 206.51 81.48C206.537 81.4 206.563 81.3067 206.59 81.2L206.67 80.76C206.67 80.6267 206.643 80.3733 206.59 80C206.537 79.6267 206.51 79.3867 206.51 79.28L206.67 78.96C206.857 78.72 207.003 78.5733 207.11 78.52C207.217 78.4667 207.35 78.44 207.51 78.44C207.697 78.4133 207.923 78.3867 208.19 78.36C208.483 78.3333 208.897 78.24 209.43 78.08L209.83 78.24L209.91 78.64C209.91 78.7467 209.91 78.8533 209.91 78.96C209.937 79.0667 209.963 79.1333 209.99 79.16L209.91 79.68C209.857 79.9467 209.83 80.1333 209.83 80.24C209.83 80.2667 209.83 80.2933 209.83 80.32C209.857 80.32 209.87 80.3333 209.87 80.36L209.75 80.92V81.32C209.75 81.48 209.737 81.7067 209.71 82C209.683 82.2933 209.657 82.6267 209.63 83C209.63 83.3467 209.617 83.7067 209.59 84.08C209.563 84.4533 209.55 84.8 209.55 85.12C209.55 85.2533 209.51 85.4933 209.43 85.84C209.35 86.16 209.31 86.3733 209.31 86.48L209.39 87C209.257 87.7733 209.177 88.3467 209.15 88.72C209.123 89.0667 209.11 89.36 209.11 89.6C209.11 89.92 209.07 90.24 208.99 90.56C208.91 90.8533 208.843 91.1067 208.79 91.32L208.51 92.32L208.39 92.76L208.47 93.12L208.15 93.76L207.87 95.32V97.08L207.91 97.64C207.91 97.72 207.857 97.8133 207.75 97.92L207.59 98.08C207.483 98.08 207.363 98.0667 207.23 98.04C207.123 97.9867 207.043 97.96 206.99 97.96L206.55 97.84L206.23 98.08ZM199.71 103.28C199.79 103.253 199.83 103.147 199.83 102.96C199.457 102.96 199.177 102.933 198.99 102.88C198.83 102.827 198.697 102.747 198.59 102.64C198.483 102.533 198.377 102.413 198.27 102.28C198.163 102.147 198.003 102.013 197.79 101.88C197.737 101.987 197.683 102.04 197.63 102.04C197.603 102.04 197.59 101.987 197.59 101.88C197.59 101.773 197.63 101.707 197.71 101.68L197.59 101.24C197.59 101.213 197.577 101.187 197.55 101.16C197.55 101.16 197.55 101.147 197.55 101.12C197.55 100.907 197.63 100.64 197.79 100.32C197.95 100.027 198.03 99.7333 198.03 99.44C198.003 99.44 197.99 99.4133 197.99 99.36C197.99 99.2533 198.03 99.0933 198.11 98.88C198.19 98.64 198.27 98.4 198.35 98.16C198.457 97.8933 198.55 97.6267 198.63 97.36C198.71 97.0933 198.75 96.8533 198.75 96.64C198.83 96.4267 198.883 96.24 198.91 96.08C198.937 95.8933 198.95 95.6533 198.95 95.36H200.35C200.963 95.6533 201.337 95.8933 201.47 96.08C201.63 96.24 201.71 96.3733 201.71 96.48V96.6V96.64C201.71 97.4133 201.643 98.16 201.51 98.88C201.377 99.5733 201.31 100.187 201.31 100.72C202.11 100.72 202.75 100.707 203.23 100.68C203.737 100.653 204.163 100.627 204.51 100.6C204.883 100.6 205.23 100.587 205.55 100.56C205.87 100.533 206.243 100.52 206.67 100.52C206.67 100.573 206.737 100.613 206.87 100.64C207.003 100.667 207.15 100.693 207.31 100.72C207.47 100.773 207.617 100.84 207.75 100.92C207.883 101 207.95 101.107 207.95 101.24C207.843 101.4 207.79 101.52 207.79 101.6C207.817 101.627 207.83 101.653 207.83 101.68C207.643 101.707 207.51 101.76 207.43 101.84C207.377 101.92 207.323 102 207.27 102.08C207.243 102.16 207.217 102.227 207.19 102.28C207.163 102.36 207.097 102.4 206.99 102.4L206.55 102.32C206.497 102.347 206.39 102.36 206.23 102.36C206.07 102.387 205.87 102.4 205.63 102.4C205.417 102.4 205.203 102.4 204.99 102.4C204.777 102.4 204.603 102.4 204.47 102.4C204.363 102.4 204.203 102.453 203.99 102.56C203.777 102.667 203.523 102.72 203.23 102.72C202.483 102.72 201.883 102.84 201.43 103.08C200.977 103.347 200.657 103.48 200.47 103.48C200.443 103.453 200.31 103.427 200.07 103.4C199.857 103.373 199.737 103.333 199.71 103.28ZM191.91 91.92H192.19C192.323 91.84 192.497 91.76 192.71 91.68C192.95 91.5733 193.177 91.4667 193.39 91.36C193.63 91.2533 193.843 91.16 194.03 91.08C194.217 90.9733 194.35 90.88 194.43 90.8L194.99 90.24L195.27 89.68V89.4L193.31 87.48H192.75C192.723 87.5067 192.643 87.6533 192.51 87.92C192.403 88.16 192.283 88.4667 192.15 88.84C192.017 89.2133 191.897 89.6 191.79 90C191.683 90.4 191.63 90.76 191.63 91.08L191.91 91.92ZM207.43 102.08C207.457 102.08 207.47 102.12 207.47 102.2C207.47 102.28 207.457 102.32 207.43 102.32C207.377 102.32 207.35 102.28 207.35 102.2C207.35 102.12 207.377 102.08 207.43 102.08ZM214.866 91.56V91.48C214.866 91.3467 214.84 91.2133 214.786 91.08C214.76 90.92 214.72 90.84 214.666 90.84V91.04C214.64 91.0667 214.613 91.08 214.586 91.08C214.533 91.08 214.493 91.0533 214.466 91C214.44 90.9467 214.4 90.8933 214.346 90.84L214.026 90.92H213.706C213.493 90.92 213.386 90.9067 213.386 90.88C213.386 90.8267 213.32 90.7333 213.186 90.6C213.08 90.6 212.973 90.64 212.866 90.72L212.946 90.52C212.813 90.52 212.746 90.36 212.746 90.04C212.773 89.8533 212.773 89.6933 212.746 89.56C212.72 89.4 212.746 89.0133 212.826 88.4L212.946 87.52C212.946 87.44 213 87.28 213.106 87.04C213.213 86.8 213.266 86.5067 213.266 86.16C213.266 85.6 213.293 85.12 213.346 84.72C213.4 84.32 213.453 83.9733 213.506 83.68C213.56 83.36 213.613 83.0933 213.666 82.88C213.72 82.64 213.746 82.4 213.746 82.16C213.746 82.1067 213.72 82 213.666 81.84C213.64 81.68 213.626 81.5333 213.626 81.4C213.653 81.3467 213.653 81.2933 213.626 81.24C213.626 81.1867 213.653 81.1467 213.706 81.12C213.786 81.0667 213.92 81.0267 214.106 81C214.32 80.9733 214.653 80.96 215.106 80.96C215.746 80.96 216.213 81.04 216.506 81.2C216.8 81.36 217 81.5467 217.106 81.76C217.24 81.9467 217.32 82.12 217.346 82.28C217.373 82.44 217.426 82.52 217.506 82.52C217.96 82.2533 218.386 82.0133 218.786 81.8C219.106 81.6133 219.413 81.44 219.706 81.28C220.026 81.12 220.213 81.04 220.266 81.04C220.48 81.04 220.733 81.0533 221.026 81.08C221.32 81.1067 221.613 81.16 221.906 81.24C222.226 81.2933 222.506 81.36 222.746 81.44C223.013 81.4933 223.2 81.56 223.306 81.64V81.72C223.146 82.3067 223.066 82.84 223.066 83.32C223.093 83.8 223 84.2267 222.786 84.6L222.906 85.6C222.906 86.0533 222.866 86.3067 222.786 86.36C222.706 86.3867 222.64 86.4533 222.586 86.56L222.666 86.68C222.453 87.5333 222.253 88.16 222.066 88.56C221.906 88.96 221.68 89.2933 221.386 89.56C221.333 89.48 221.28 89.44 221.226 89.44H221.186C221.186 89.6 221.253 89.7467 221.386 89.88C221.333 90.1733 221.12 90.3867 220.746 90.52L220.986 90.84C220.773 90.8933 220.626 90.9467 220.546 91C220.493 91.0267 220.413 91.04 220.306 91.04H220.226C220.066 91.04 219.8 91.08 219.426 91.16C219.08 91.2133 218.72 91.28 218.346 91.36C218 91.4133 217.68 91.4667 217.386 91.52C217.093 91.5467 216.933 91.56 216.906 91.56V91.44C216.613 91.6533 216.32 91.7867 216.026 91.84C215.76 91.8667 215.48 91.88 215.186 91.88C214.866 91.88 214.693 91.7733 214.666 91.56H214.866ZM218.586 101.32V101.16L218.946 100.8C219.32 100.8 219.653 100.68 219.946 100.44C220.266 100.2 220.586 100.08 220.906 100.08C221.52 99.6533 222.093 99.3467 222.626 99.16C223.186 99 223.68 98.7067 224.106 98.28L224.266 98.12C224.266 98.0667 224.28 97.96 224.306 97.8C224.333 97.64 224.346 97.4667 224.346 97.28C224.373 97.0933 224.4 96.9333 224.426 96.8C224.453 96.64 224.466 96.5333 224.466 96.48V95.56H224.106L223.586 95.76L223.026 96.12C222.973 96.1733 222.906 96.2133 222.826 96.24C222.746 96.2667 222.666 96.3067 222.586 96.36L222.306 96.48L221.826 96.56C221.693 96.5867 221.546 96.6133 221.386 96.64C221.253 96.64 221.146 96.64 221.066 96.64H220.906C220.8 96.64 220.613 96.5867 220.346 96.48C220.08 96.3467 219.906 96.28 219.826 96.28L219.626 96.16C219.386 95.9467 219.093 95.7333 218.746 95.52C218.4 95.3067 218.226 95.0267 218.226 94.68V94.52L218.386 94.32C219.08 94.32 219.853 94.24 220.706 94.08C221.56 93.92 222.626 93.64 223.906 93.24C224.013 93.24 224.2 93.1867 224.466 93.08C224.733 92.9733 224.906 92.92 224.986 92.92H226.066L226.426 92.72H226.786L227.306 92.92H227.826L227.506 93.08L227.666 93.8V94.68C227.666 94.7333 227.693 94.84 227.746 95C227.8 95.1333 227.893 95.2667 228.026 95.4H228.186V95.56L228.026 95.76H227.866C227.866 95.84 227.826 95.96 227.746 96.12C227.693 96.2533 227.666 96.3733 227.666 96.48L227.506 97V97.76L227.306 98.12V98.64L227.146 98.84L227.226 99.12C227.28 99.3867 227.306 99.52 227.306 99.52L227.506 99.88H227.146L226.946 100.24V100.96L226.786 101.32L226.586 101.48C225.573 101.48 224.853 101.56 224.426 101.72C224 101.88 223.72 101.987 223.586 102.04L223.226 102.2C223.066 102.2 222.866 102.24 222.626 102.32C222.386 102.427 222.16 102.52 221.946 102.6C221.76 102.707 221.6 102.8 221.466 102.88C221.36 102.96 221.32 102.987 221.346 102.96C221.293 102.987 221.24 103.013 221.186 103.04C221.16 103.067 221.12 103.093 221.066 103.12V103.68C221.066 103.813 221.2 103.907 221.466 103.96C221.733 104.013 221.893 104.04 221.946 104.04H222.146C223.026 103.933 223.906 103.84 224.786 103.76C225.693 103.707 226.6 103.68 227.506 103.68V103.84L227.306 104.2L227.506 104.56V104.76L226.426 105.12L225.906 105.28C225.613 105.28 225.213 105.347 224.706 105.48C224.226 105.613 223.88 105.693 223.666 105.72L223.226 105.8H221.266L220.906 105.64C220.693 105.427 220.426 105.267 220.106 105.16C219.786 105.08 219.573 104.88 219.466 104.56C219.413 104.533 219.36 104.44 219.306 104.28C219.253 104.147 219.186 103.987 219.106 103.8C219.053 103.613 218.986 103.427 218.906 103.24C218.853 103.08 218.8 102.973 218.746 102.92C218.64 102.813 218.573 102.653 218.546 102.44C218.52 102.253 218.493 102.093 218.466 101.96L218.386 101.68L218.586 101.32ZM225.346 90.96V90.04L225.546 89.32V88.64C225.546 88.56 225.56 88.36 225.586 88.04C225.64 87.6933 225.68 87.3333 225.706 86.96C225.76 86.56 225.8 86.2 225.826 85.88C225.88 85.5333 225.906 85.32 225.906 85.24V83.44L226.066 82.76V82.4C226.066 82.2933 226.093 82.1467 226.146 81.96C226.2 81.7467 226.226 81.5867 226.226 81.48L226.426 80.96V80.8C226.426 80.4267 226.533 80.0933 226.746 79.8C226.986 79.48 227.106 79.12 227.106 78.72L227.186 78.2C227.213 78.0667 227.226 77.96 227.226 77.88C227.253 77.8 227.266 77.7333 227.266 77.68V76.76L227.466 76.6H228.706L229.226 76.24H229.426L230.466 76.6V77.48C230.466 77.5867 230.52 77.7467 230.626 77.96C230.76 78.1467 230.826 78.28 230.826 78.36L230.466 79.08C230.386 79.2667 230.346 79.4933 230.346 79.76C230.346 80.0267 230.346 80.1867 230.346 80.24V81.68C230.346 81.76 230.28 81.8667 230.146 82C230.013 82.1333 229.906 82.2 229.826 82.2H229.626L229.466 82.4V82.76L229.266 83.12V83.44H229.106L228.906 83.64V84.16L229.106 84.36L228.746 84.52V84.72H229.266L229.466 84.52L229.626 84.16L229.826 84.36H232.466C232.52 84.36 232.586 84.36 232.666 84.36C232.746 84.3333 232.853 84.3067 232.986 84.28L233.546 84.16L233.906 84L234.626 84.16H235.346L235.146 84.36L234.986 84.72L234.786 84.88V85.08L234.986 85.6L234.786 85.76V85.96L234.986 86.32L234.506 86.6C234.24 86.6533 234.106 86.68 234.106 86.68L233.586 86.76C233.026 86.84 232.413 86.9333 231.746 87.04C231.106 87.1467 230.4 87.2 229.626 87.2L228.906 87.56H228.746C228.746 87.64 228.706 87.76 228.626 87.92C228.573 88.0533 228.546 88.1733 228.546 88.28V88.64C228.733 88.4533 228.853 88.2933 228.906 88.16V88.64L228.746 89L228.546 89.16V89.68L228.746 89.32L228.906 89.68L228.546 90.04V90.24L228.906 90.6V91.28L228.546 91.12V92H228.386L228.186 91.84L227.666 92.56L227.506 92.36V92.2L227.146 92H226.786L226.066 91.64H225.906C225.853 91.64 225.76 91.6267 225.626 91.6C225.493 91.5733 225.4 91.5333 225.346 91.48L225.186 91.28L225.346 90.96ZM216.226 89C216.226 89.1333 216.266 89.2133 216.346 89.24C216.426 89.2667 216.773 89.28 217.386 89.28C217.92 89.28 218.333 89.16 218.626 88.92C218.92 88.68 219.133 88.36 219.266 87.96C219.426 87.5333 219.52 87.0267 219.546 86.44C219.573 85.8533 219.586 85.2133 219.586 84.52L216.986 85.8C216.986 85.88 216.92 86.0267 216.786 86.24C216.68 86.4267 216.626 86.56 216.626 86.64C216.626 86.6667 216.64 86.68 216.666 86.68C216.666 86.7867 216.64 86.9467 216.586 87.16C216.56 87.3467 216.506 87.56 216.426 87.8C216.373 88.04 216.32 88.2667 216.266 88.48C216.24 88.6667 216.226 88.8133 216.226 88.92V89ZM230.706 80.96C230.786 80.96 230.826 81.0267 230.826 81.16C230.826 81.2667 230.786 81.32 230.706 81.32C230.6 81.32 230.546 81.2667 230.546 81.16C230.546 81.0267 230.6 80.96 230.706 80.96ZM229.106 91.28C229.186 91.28 229.226 91.3467 229.226 91.48C229.226 91.5867 229.186 91.64 229.106 91.64C229 91.64 228.946 91.5867 228.946 91.48C228.946 91.3467 229 91.28 229.106 91.28ZM228.866 89.92C228.946 89.92 228.986 89.9867 228.986 90.12C228.986 90.2267 228.946 90.28 228.866 90.28C228.76 90.28 228.706 90.2267 228.706 90.12C228.706 89.9867 228.76 89.92 228.866 89.92ZM235.346 84.52C235.426 84.52 235.466 84.5867 235.466 84.72C235.466 84.8267 235.426 84.88 235.346 84.88C235.24 84.88 235.186 84.8267 235.186 84.72C235.186 84.5867 235.24 84.52 235.346 84.52ZM229.986 80.6C229.906 80.6 229.866 80.6667 229.866 80.8C229.866 80.9067 229.906 80.96 229.986 80.96C230.093 80.96 230.146 80.9067 230.146 80.8C230.146 80.6667 230.093 80.6 229.986 80.6ZM227.666 91.64C227.586 91.64 227.546 91.7067 227.546 91.84C227.546 91.9467 227.586 92 227.666 92C227.773 92 227.826 91.9467 227.826 91.84C227.826 91.7067 227.773 91.64 227.666 91.64ZM233.906 84.16C233.826 84.16 233.786 84.2267 233.786 84.36C233.786 84.4667 233.826 84.52 233.906 84.52C234.013 84.52 234.066 84.4667 234.066 84.36C234.066 84.2267 234.013 84.16 233.906 84.16ZM228.186 94.88C228.293 94.88 228.346 94.9333 228.346 95.04C228.346 95.1467 228.293 95.2 228.186 95.2C228.106 95.2 228.066 95.1467 228.066 95.04C228.066 94.9333 228.106 94.88 228.186 94.88ZM228.026 92.92C228.106 92.92 228.146 92.9733 228.146 93.08C228.146 93.1867 228.106 93.24 228.026 93.24C227.946 93.24 227.906 93.1867 227.906 93.08C227.906 92.9733 227.946 92.92 228.026 92.92ZM228.386 94.32L228.186 94.52V93.96L228.386 94.32ZM229.626 82.92C229.733 82.92 229.786 82.96 229.786 83.04C229.786 83.0933 229.733 83.12 229.626 83.12C229.546 83.12 229.506 83.0933 229.506 83.04C229.506 82.96 229.546 82.92 229.626 82.92ZM228.546 93.6H228.026L228.186 93.44L228.546 93.6ZM229.266 83.8C229.266 83.9333 229.213 84 229.106 84C229.053 84 229.026 83.9867 229.026 83.96C229.026 83.9067 229.053 83.8667 229.106 83.84C229.16 83.7867 229.2 83.76 229.226 83.76C229.253 83.76 229.266 83.7733 229.266 83.8ZM227.866 98.48L227.666 98.84V98.48H227.866ZM227.866 97.76C227.946 97.76 227.986 97.7867 227.986 97.84C227.986 97.8933 227.946 97.92 227.866 97.92C227.76 97.92 227.706 97.8933 227.706 97.84C227.706 97.7867 227.76 97.76 227.866 97.76ZM229.266 91.84L229.106 92V91.84H229.266ZM122.515 134.6C122.515 134.52 122.528 134.413 122.555 134.28C122.581 134.147 122.608 134 122.635 133.84C122.688 133.68 122.728 133.533 122.755 133.4C122.808 133.24 122.835 133.133 122.835 133.08L122.755 132.8L123.035 132C123.035 131.68 123.048 131.333 123.075 130.96C123.128 130.56 123.181 130.187 123.235 129.84C123.288 129.493 123.341 129.2 123.395 128.96C123.448 128.72 123.475 128.587 123.475 128.56L123.635 128L124.155 127.88C124.288 127.853 124.421 127.827 124.555 127.8C124.688 127.773 124.781 127.76 124.835 127.76H125.915C125.968 127.76 126.035 127.773 126.115 127.8C126.221 127.827 126.315 127.853 126.395 127.88L126.675 128L127.235 128.56L127.315 129.08C127.341 129.213 127.355 129.347 127.355 129.48C127.381 129.613 127.395 129.707 127.395 129.76V130.28L126.915 132V132.28H128.635C128.768 132.28 128.955 132.24 129.195 132.16C129.435 132.053 129.608 132 129.715 132C129.715 131.92 129.741 131.733 129.795 131.44C129.848 131.147 129.915 130.84 129.995 130.52C130.075 130.173 130.141 129.867 130.195 129.6C130.248 129.307 130.275 129.133 130.275 129.08V128C130.408 128 130.608 127.96 130.875 127.88C131.141 127.773 131.355 127.72 131.515 127.72L131.795 127.8L132.035 127.76L132.475 128.04C132.608 128.093 132.728 128.147 132.835 128.2C132.941 128.253 133.035 128.28 133.115 128.28L133.395 128.56L133.595 129.28L133.395 131.56V133.52C133.395 133.6 133.355 133.667 133.275 133.72C133.195 133.773 133.155 133.813 133.155 133.84L133.395 134.28V137.84L133.875 138.08L134.115 138.6L133.875 138.84V139.84C133.741 139.84 133.515 139.893 133.195 140C132.901 140.08 132.688 140.12 132.555 140.12H131.835L130.795 139.84L130.395 139.8L130.035 141.36L130.275 141.2L130.315 142.32C130.261 142.427 130.235 142.56 130.235 142.72C130.235 142.853 130.235 142.973 130.235 143.08L130.035 143.52V144.16L129.755 144.56V145.28L129.315 146.4H129.755L129.155 147.08V148.08L128.835 148.56V148.76C128.835 148.92 128.781 149.093 128.675 149.28L128.195 150.28V150.52L128.395 150.72C128.501 150.72 128.755 150.707 129.155 150.68C129.555 150.653 129.981 150.627 130.435 150.6C130.888 150.6 131.315 150.587 131.715 150.56C132.115 150.533 132.368 150.52 132.475 150.52L132.835 150.64C133.048 150.72 133.208 150.76 133.315 150.76C133.421 150.787 133.568 150.827 133.755 150.88L133.995 150.96L134.435 151.4V151.88C134.301 151.88 134.141 151.88 133.955 151.88C133.795 151.907 133.661 151.973 133.555 152.08V152.72L133.195 152.84C132.981 152.92 132.808 152.96 132.675 152.96H132.475C132.421 152.96 132.235 152.96 131.915 152.96C131.621 152.987 131.301 153.013 130.955 153.04C130.608 153.067 130.275 153.08 129.955 153.08C129.661 153.107 129.488 153.12 129.435 153.12H126.595C126.541 153.12 126.448 153.133 126.315 153.16C126.181 153.187 126.035 153.213 125.875 153.24C125.715 153.267 125.555 153.293 125.395 153.32C125.261 153.347 125.155 153.36 125.075 153.36L124.475 153.48C124.181 153.587 123.928 153.667 123.715 153.72C123.528 153.773 123.341 153.827 123.155 153.88L122.475 154.2C122.421 154.253 122.261 154.333 121.995 154.44C121.755 154.547 121.488 154.64 121.195 154.72C120.928 154.827 120.675 154.907 120.435 154.96C120.195 155.04 120.048 155.08 119.995 155.08H119.755L119.555 154.64L119.355 154.4L118.995 154.2L117.915 153.12L117.875 152.56L118.555 152.28C119.061 152.28 119.421 152.173 119.635 151.96C119.848 151.773 120.035 151.68 120.195 151.68C120.621 151.52 120.928 151.347 121.115 151.16C121.301 150.973 121.421 150.827 121.475 150.72C121.608 150.613 121.781 150.467 121.995 150.28C122.235 150.12 122.355 149.987 122.355 149.88L124.235 147.88V148.56L124.475 148.32C124.528 147.973 124.608 147.6 124.715 147.2C124.848 146.8 124.915 146.453 124.915 146.16V145.72L125.035 145.24C125.141 145.027 125.221 144.867 125.275 144.76C125.328 144.653 125.381 144.507 125.435 144.32L125.555 144.16H125.995L126.635 143.96V144.16L126.395 144.6V145.04H126.835L127.075 145.28C127.075 145.147 127.141 145 127.275 144.84C127.435 144.653 127.515 144.507 127.515 144.4V143.76L127.275 143.64C127.195 143.613 127.115 143.587 127.035 143.56C126.955 143.533 126.888 143.52 126.835 143.52H126.635L126.395 143.76H125.755V143.08L125.995 142.64C125.995 142.56 126.061 142.36 126.195 142.04L126.395 141.56V141.32L125.755 141.76L126.195 141.12V140.92L125.915 141.32H125.355L124.835 140.76H124.355L124.035 140.64C123.955 140.587 123.875 140.533 123.795 140.48C123.715 140.427 123.661 140.347 123.635 140.24L123.355 140.04C123.355 139.987 123.315 139.92 123.235 139.84C123.181 139.733 123.115 139.64 123.035 139.56L122.755 139.28C122.755 139.227 122.741 139.107 122.715 138.92C122.688 138.733 122.661 138.533 122.635 138.32L122.515 137.56L122.755 135.68L122.515 134.6ZM126.395 135.36C126.395 135.52 126.355 135.88 126.275 136.44C126.221 137 126.155 137.573 126.075 138.16C126.608 138.107 127.115 138.04 127.595 137.96C128.101 137.88 128.408 137.84 128.515 137.84H129.235L129.515 137.56V134.6H128.635C128.501 134.6 128.315 134.653 128.075 134.76L127.635 134.92L127.235 135.36H126.395ZM125.995 146.16C125.995 146.213 125.981 146.28 125.955 146.36C125.928 146.44 125.901 146.507 125.875 146.56L125.755 146.8V148.32L125.995 148.12C125.995 147.987 126.021 147.8 126.075 147.56C126.155 147.32 126.195 147.147 126.195 147.04V145.92L125.995 146.16ZM125.355 146.28C125.301 146.387 125.248 146.52 125.195 146.68C125.141 146.84 125.115 146.96 125.115 147.04V147.64L125.355 147.04V146.28ZM124.475 145.92V146.36L124.235 146.8V145.92H124.475ZM126.635 147.44C126.501 147.44 126.435 147.52 126.435 147.68C126.435 147.813 126.501 147.88 126.635 147.88C126.741 147.88 126.795 147.813 126.795 147.68C126.795 147.52 126.741 147.44 126.635 147.44ZM126.835 145.48C126.728 145.48 126.675 145.56 126.675 145.72C126.675 145.853 126.728 145.92 126.835 145.92C126.968 145.92 127.035 145.853 127.035 145.72C127.035 145.56 126.968 145.48 126.835 145.48ZM126.395 145.28C126.288 145.28 126.235 145.36 126.235 145.52C126.235 145.653 126.288 145.72 126.395 145.72C126.528 145.72 126.595 145.653 126.595 145.52C126.595 145.36 126.528 145.28 126.395 145.28ZM124.235 143.32C124.368 143.32 124.435 143.4 124.435 143.56C124.435 143.693 124.368 143.76 124.235 143.76C124.128 143.76 124.075 143.693 124.075 143.56C124.075 143.4 124.128 143.32 124.235 143.32ZM124.035 143.76C124.141 143.76 124.195 143.827 124.195 143.96C124.195 144.093 124.141 144.16 124.035 144.16C123.901 144.16 123.835 144.093 123.835 143.96C123.835 143.827 123.901 143.76 124.035 143.76ZM128.635 146.8C128.608 146.773 128.595 146.76 128.595 146.76C128.541 146.76 128.488 146.787 128.435 146.84C128.381 146.893 128.355 146.947 128.355 147C128.355 147.027 128.381 147.04 128.435 147.04H128.515C128.568 147.04 128.595 147.04 128.595 147.04C128.621 147.013 128.635 146.933 128.635 146.8ZM124.675 145.28L124.475 145.48V145.28L124.675 144.84V145.28ZM126.835 142.88C126.835 142.747 126.795 142.68 126.715 142.68C126.661 142.68 126.635 142.747 126.635 142.88C126.635 142.987 126.661 143.04 126.715 143.04C126.795 143.04 126.835 142.987 126.835 142.88ZM125.115 148.12C125.115 147.987 125.075 147.92 124.995 147.92C124.941 147.92 124.915 147.987 124.915 148.12C124.915 148.227 124.941 148.28 124.995 148.28C125.075 148.28 125.115 148.227 125.115 148.12ZM124.235 147.24C124.235 147.347 124.195 147.4 124.115 147.4C124.061 147.4 124.035 147.347 124.035 147.24C124.035 147.133 124.061 147.08 124.115 147.08C124.195 147.08 124.235 147.133 124.235 147.24ZM129.715 145.96C129.821 145.96 129.875 145.987 129.875 146.04C129.875 146.093 129.821 146.12 129.715 146.12C129.635 146.12 129.595 146.093 129.595 146.04C129.595 145.987 129.635 145.96 129.715 145.96ZM155.948 153.76L155.708 153.64C155.655 153.613 155.588 153.587 155.508 153.56C155.455 153.533 155.402 153.52 155.348 153.52L154.948 153.32L154.748 152.92V152.52L154.508 152.32L155.068 150.44V149.88C155.068 149.853 155.082 149.72 155.108 149.48C155.162 149.267 155.215 149.027 155.268 148.76C155.322 148.493 155.362 148.253 155.388 148.04C155.442 147.8 155.468 147.653 155.468 147.6L155.628 148.04V147L155.268 147.24L155.468 146.6V146.2L155.868 145.6V145.2L155.468 145.44C155.468 145.387 155.482 145.253 155.508 145.04C155.535 144.827 155.562 144.613 155.588 144.4C155.642 144.16 155.682 143.947 155.708 143.76C155.735 143.547 155.748 143.413 155.748 143.36L155.908 141.72L155.308 141.8C155.175 141.827 155.055 141.853 154.948 141.88C154.868 141.88 154.802 141.88 154.748 141.88H153.308V142.12C153.308 142.28 153.282 142.533 153.228 142.88C153.175 143.2 153.122 143.533 153.068 143.88C153.015 144.227 152.962 144.533 152.908 144.8C152.855 145.04 152.828 145.173 152.828 145.2V145.6L152.668 145.8L152.828 146.2V148.84L152.668 149L152.468 149.44V149.84L152.228 150.04C152.122 150.04 151.988 149.973 151.828 149.84C151.668 149.707 151.535 149.64 151.428 149.64L151.228 149.44H150.828L150.428 149H149.828L149.388 148.64V146.4L149.628 145.6V143.96C149.628 143.587 149.668 143.027 149.748 142.28C149.828 141.533 150.055 140.427 150.428 138.96C150.428 138.533 150.482 138.12 150.588 137.72C150.695 137.293 150.802 136.867 150.908 136.44C151.042 135.987 151.162 135.52 151.268 135.04C151.375 134.56 151.428 134.04 151.428 133.48V133.08C151.428 132.44 151.482 131.947 151.588 131.6C151.722 131.253 151.868 131 152.028 130.84C152.188 130.653 152.362 130.547 152.548 130.52C152.735 130.493 152.895 130.48 153.028 130.48H153.228C153.548 130.693 153.788 130.813 153.948 130.84C154.135 130.867 154.295 130.947 154.428 131.08L154.628 131.28L154.708 131.72C154.735 131.853 154.762 131.973 154.788 132.08C154.815 132.187 154.828 132.267 154.828 132.32V132.72L154.708 133.28C154.655 133.44 154.615 133.6 154.588 133.76C154.562 133.893 154.522 134.013 154.468 134.12L154.268 134.72L153.988 136.56C153.988 136.64 153.975 136.773 153.948 136.96C153.922 137.12 153.895 137.307 153.868 137.52C153.842 137.707 153.815 137.88 153.788 138.04C153.762 138.2 153.748 138.307 153.748 138.36C153.855 138.36 154.028 138.373 154.268 138.4C154.508 138.427 154.748 138.453 154.988 138.48C155.255 138.48 155.508 138.493 155.748 138.52C156.015 138.547 156.228 138.56 156.388 138.56L156.588 138.36L156.788 137.16C156.788 137.107 156.815 136.947 156.868 136.68C156.948 136.413 157.028 136.133 157.108 135.84C157.188 135.547 157.255 135.267 157.308 135C157.388 134.733 157.428 134.573 157.428 134.52L157.668 133.92C157.668 133.893 157.708 133.733 157.788 133.44C157.868 133.147 157.962 132.827 158.068 132.48C158.175 132.133 158.268 131.813 158.348 131.52C158.428 131.227 158.468 131.053 158.468 131C158.468 130.973 158.495 130.853 158.548 130.64L158.868 130.2L159.188 130.12C159.268 130.093 159.348 130.067 159.428 130.04C159.535 130.013 159.615 130 159.668 130H159.868L160.268 130.2L160.708 130.64C161.028 130.72 161.188 130.92 161.188 131.24C161.188 131.293 161.162 131.427 161.108 131.64L160.868 133.48C160.868 133.773 160.828 134.107 160.748 134.48C160.695 134.827 160.628 135.187 160.548 135.56C160.495 135.907 160.428 136.267 160.348 136.64C160.295 136.987 160.268 137.293 160.268 137.56C160.268 137.933 160.162 138.36 159.948 138.84C159.762 139.32 159.668 139.827 159.668 140.36V142.16C159.668 142.213 159.655 142.32 159.628 142.48C159.602 142.613 159.575 142.773 159.548 142.96C159.548 143.147 159.535 143.32 159.508 143.48C159.482 143.64 159.468 143.747 159.468 143.8V144.2L159.268 145.44C159.268 145.52 159.228 145.747 159.148 146.12C159.095 146.467 159.068 146.693 159.068 146.8L158.868 150.44C158.868 150.547 158.842 150.76 158.788 151.08C158.735 151.427 158.682 151.787 158.628 152.16C158.575 152.533 158.522 152.88 158.468 153.2C158.415 153.52 158.388 153.707 158.388 153.76L157.908 154.32C157.775 154.453 157.655 154.52 157.548 154.52H157.148L156.548 154.08L156.348 153.52L155.948 153.76ZM140.708 146.08L140.468 146.16C140.415 146.187 140.322 146.2 140.188 146.2C140.108 146.093 140.015 146.027 139.908 146C139.828 145.947 139.775 145.907 139.748 145.88L139.308 146.28C138.668 146.173 138.228 146.053 137.988 145.92C137.748 145.787 137.588 145.653 137.508 145.52C137.455 145.387 137.428 145.253 137.428 145.12C137.455 144.987 137.415 144.88 137.308 144.8L137.428 144.48V144.44C137.428 144.413 137.415 144.4 137.388 144.4C137.362 144.373 137.335 144.333 137.308 144.28C137.335 143.933 137.388 143.533 137.468 143.08C137.575 142.6 137.668 142.12 137.748 141.64C137.855 141.133 137.948 140.653 138.028 140.2C138.108 139.747 138.148 139.347 138.148 139C138.122 138.92 138.108 138.8 138.108 138.64C138.108 138.453 138.135 138.28 138.188 138.12C138.242 137.96 138.308 137.8 138.388 137.64C138.468 137.453 138.535 137.24 138.588 137C138.642 136.76 138.668 136.48 138.668 136.16L138.788 136.08C138.762 135.52 138.748 135.12 138.748 134.88C138.775 134.64 138.748 134.413 138.668 134.2C138.748 134.093 138.788 134.013 138.788 133.96C138.788 133.907 138.788 133.867 138.788 133.84C138.788 133.787 138.802 133.733 138.828 133.68C138.882 133.6 138.975 133.48 139.108 133.32C140.095 133.373 140.842 133.507 141.348 133.72C141.882 133.907 142.255 134.12 142.468 134.36C142.682 134.573 142.815 134.773 142.868 134.96C142.922 135.147 142.988 135.24 143.068 135.24C143.068 135.293 143.055 135.387 143.028 135.52C143.028 135.627 143.028 135.747 143.028 135.88C143.028 136.013 143.015 136.147 142.988 136.28C142.988 136.387 142.988 136.453 142.988 136.48C142.988 136.693 142.908 136.827 142.748 136.88C142.588 136.907 142.508 136.973 142.508 137.08C142.508 137.107 142.522 137.133 142.548 137.16L142.028 138.36C142.002 138.36 141.988 138.373 141.988 138.4C141.988 138.453 142.028 138.533 142.108 138.64C142.188 138.72 142.268 138.76 142.348 138.76C142.268 138.893 142.188 138.973 142.108 139C142.028 139 141.975 139.067 141.948 139.2H142.148C142.148 139.387 142.108 139.493 142.028 139.52L142.148 139.72V139.88C142.148 140.093 142.122 140.213 142.068 140.24C142.042 140.267 142.028 140.347 142.028 140.48L142.148 140.6V140.72C142.148 140.907 142.082 141.12 141.948 141.36C141.815 141.6 141.748 141.76 141.748 141.84L141.948 141.92L141.748 142.24C141.748 142.347 141.762 142.427 141.788 142.48C141.815 142.507 141.828 142.573 141.828 142.68C141.828 142.76 141.815 142.853 141.788 142.96C141.788 143.067 141.775 143.147 141.748 143.2C141.802 143.387 141.842 143.48 141.868 143.48C142.055 143.48 142.282 143.387 142.548 143.2C142.815 142.987 143.202 142.853 143.708 142.8C143.948 142.773 144.095 142.693 144.148 142.56C144.228 142.4 144.322 142.293 144.428 142.24C144.535 142.24 144.588 142.253 144.588 142.28C144.588 142.28 144.615 142.307 144.668 142.36C144.722 142.307 144.802 142.24 144.908 142.16C145.042 142.08 145.135 142.04 145.188 142.04H145.268H145.468C145.575 142.04 145.655 142.08 145.708 142.16L145.828 142.04C145.882 142.013 145.922 141.987 145.948 141.96C145.975 141.933 146.002 141.92 146.028 141.92C146.082 141.973 146.188 142.027 146.348 142.08C146.535 142.133 146.708 142.16 146.868 142.16L146.788 142.36H146.868C146.922 142.36 146.935 142.347 146.908 142.32C146.882 142.267 146.975 142.24 147.188 142.24C147.188 142.24 147.242 142.253 147.348 142.28C147.455 142.307 147.562 142.347 147.668 142.4C147.802 142.427 147.922 142.48 148.028 142.56C148.135 142.613 148.188 142.68 148.188 142.76C148.188 142.813 148.175 142.853 148.148 142.88L148.268 143.2C148.082 143.333 147.895 143.44 147.708 143.52C147.548 143.6 147.415 143.707 147.308 143.84C147.255 143.84 147.188 143.827 147.108 143.8C147.055 143.773 147.015 143.76 146.988 143.76C146.988 143.893 146.988 143.973 146.988 144C147.015 144 147.055 144.027 147.108 144.08C146.735 144.133 146.415 144.213 146.148 144.32C145.882 144.427 145.522 144.48 145.068 144.48C144.935 144.48 144.802 144.533 144.668 144.64C144.535 144.747 144.388 144.867 144.228 145C144.095 145.107 143.935 145.213 143.748 145.32C143.562 145.4 143.335 145.44 143.068 145.44C143.042 145.44 142.935 145.467 142.748 145.52C142.562 145.547 142.348 145.6 142.108 145.68C141.895 145.76 141.695 145.853 141.508 145.96C141.322 146.067 141.228 146.173 141.228 146.28L141.148 146.08C141.095 146.24 141.042 146.36 140.988 146.44C140.935 146.493 140.882 146.587 140.828 146.72C140.748 146.64 140.708 146.587 140.708 146.56C140.708 146.533 140.708 146.373 140.708 146.08ZM155.348 149.84V150.28L155.588 150.56L155.548 150.04L155.348 149.84ZM149.148 147.24C149.282 147.24 149.348 147.267 149.348 147.32C149.348 147.373 149.282 147.4 149.148 147.4C149.042 147.4 148.988 147.373 148.988 147.32C148.988 147.267 149.042 147.24 149.148 147.24ZM147.948 142.68C147.895 142.68 147.868 142.72 147.868 142.8C147.868 142.853 147.895 142.88 147.948 142.88C148.002 142.88 148.028 142.853 148.028 142.8C148.028 142.72 148.002 142.68 147.948 142.68ZM148.148 143.32C148.202 143.32 148.228 143.36 148.228 143.44C148.228 143.493 148.202 143.52 148.148 143.52C148.095 143.52 148.068 143.493 148.068 143.44C148.068 143.36 148.095 143.32 148.148 143.32ZM140.188 146.6H140.068C140.122 146.573 140.148 146.56 140.148 146.56C140.175 146.533 140.215 146.52 140.268 146.52L140.188 146.6ZM143.908 145.32H143.788L143.908 145.24V145.32ZM184.745 149.96C184.745 149.827 184.758 149.64 184.785 149.4C184.812 149.16 184.838 148.92 184.865 148.68C184.918 148.44 184.958 148.227 184.985 148.04C185.012 147.827 185.025 147.68 185.025 147.6C185.025 147.2 185.065 146.76 185.145 146.28C185.225 145.773 185.305 145.28 185.385 144.8C185.492 144.293 185.585 143.827 185.665 143.4C185.745 142.973 185.785 142.64 185.785 142.4L186.065 141.08V140.8L186.305 139.76V139.24C186.305 139.107 186.345 138.853 186.425 138.48C186.532 138.08 186.585 137.813 186.585 137.68V136.88L186.825 136.36C186.825 136.227 186.852 136.107 186.905 136C186.985 135.867 187.052 135.733 187.105 135.6V135.32C187.105 135.053 187.052 134.933 186.945 134.96C186.865 134.987 186.825 134.933 186.825 134.8V134.52L187.105 134C187.105 133.947 187.118 133.84 187.145 133.68C187.172 133.493 187.198 133.307 187.225 133.12C187.252 132.907 187.278 132.72 187.305 132.56C187.332 132.373 187.345 132.253 187.345 132.2L187.625 130.88C187.625 130.72 187.665 130.453 187.745 130.08C187.825 129.707 187.865 129.453 187.865 129.32H188.665L189.465 129.04H189.985C190.118 129.04 190.332 129.147 190.625 129.36C190.918 129.547 191.132 129.707 191.265 129.84L191.785 130.36C191.785 130.413 191.838 130.52 191.945 130.68C191.998 130.76 192.038 130.827 192.065 130.88V131.12C192.065 131.253 191.972 131.48 191.785 131.8C191.625 132.093 191.545 132.307 191.545 132.44L191.025 133.24L190.865 133.64C190.812 133.747 190.772 133.933 190.745 134.2C190.718 134.44 190.678 134.707 190.625 135C190.572 135.267 190.505 135.533 190.425 135.8C190.372 136.067 190.305 136.253 190.225 136.36L189.985 136.64H190.225V138.44C190.225 138.6 190.198 138.853 190.145 139.2C190.092 139.547 190.025 139.92 189.945 140.32C189.865 140.693 189.772 141.053 189.665 141.4C189.585 141.747 189.518 141.987 189.465 142.12L189.185 142.4H188.945V142.64C188.945 142.747 188.985 142.813 189.065 142.84L189.185 142.92V143.16C189.185 143.293 189.172 143.467 189.145 143.68C189.118 143.867 189.092 144.067 189.065 144.28L188.945 145L188.385 145.52L187.865 146.32L188.385 146.04H188.945L188.665 146.56L188.425 146.8C188.265 146.96 188.118 147.053 187.985 147.08H188.665L188.385 147.6V149.44C188.385 149.6 188.345 149.867 188.265 150.24C188.185 150.613 188.145 150.867 188.145 151H187.625L187.105 151.52L186.825 152.04H186.585C186.478 151.96 186.305 151.84 186.065 151.68C185.825 151.547 185.558 151.413 185.265 151.28L184.985 150.84C184.932 150.707 184.878 150.587 184.825 150.48C184.772 150.373 184.745 150.293 184.745 150.24V149.96ZM166.545 150.36L166.145 150.04L165.705 150.28C165.465 150.12 165.225 150.04 164.985 150.04H164.865C164.812 150.04 164.718 150.013 164.585 149.96C164.452 149.907 164.305 149.84 164.145 149.76C164.012 149.707 163.878 149.64 163.745 149.56C163.638 149.48 163.585 149.413 163.585 149.36V149.32V149C163.585 148.867 163.585 148.747 163.585 148.64C163.612 148.507 163.678 148.44 163.785 148.44V149L164.025 148.88C164.025 148.773 164.092 148.68 164.225 148.6C164.385 148.493 164.492 148.413 164.545 148.36L164.425 148.12H164.385C164.385 148.067 164.412 148 164.465 147.92C164.518 147.813 164.545 147.64 164.545 147.4L164.665 147.6C164.718 147.6 164.798 147.56 164.905 147.48C165.012 147.373 165.065 147.253 165.065 147.12C165.065 147.013 165.038 146.96 164.985 146.96C164.878 146.96 164.812 147 164.785 147.08C164.758 147.133 164.718 147.2 164.665 147.28C164.585 147.227 164.532 147.173 164.505 147.12C164.505 147.067 164.478 147.013 164.425 146.96L164.025 147.4H163.905C163.905 147.267 163.958 147.147 164.065 147.04C164.172 146.907 164.225 146.773 164.225 146.64C164.252 146.667 164.265 146.68 164.265 146.68C164.318 146.68 164.385 146.613 164.465 146.48C164.572 146.32 164.772 146.24 165.065 146.24C164.932 146.453 164.865 146.627 164.865 146.76C164.998 146.68 165.078 146.587 165.105 146.48C165.158 146.373 165.185 146.267 165.185 146.16C165.212 146.053 165.238 145.947 165.265 145.84C165.318 145.707 165.398 145.587 165.505 145.48L165.385 145.16C165.385 145.027 165.452 144.853 165.585 144.64C165.745 144.427 165.852 144.253 165.905 144.12C165.852 144.173 165.758 144.2 165.625 144.2C165.545 144.067 165.452 144 165.345 144H165.305C165.305 143.867 165.372 143.693 165.505 143.48C165.638 143.267 165.705 143.013 165.705 142.72C165.385 142.72 165.198 142.733 165.145 142.76C165.118 142.76 165.065 142.813 164.985 142.92C164.905 142.867 164.865 142.813 164.865 142.76C164.865 142.707 164.865 142.653 164.865 142.6L165.705 141.76L165.825 141.88C165.878 141.827 165.905 141.787 165.905 141.76V141.56C165.692 141.56 165.558 141.587 165.505 141.64H165.385C165.385 141.587 165.425 141.467 165.505 141.28C165.585 141.093 165.625 140.973 165.625 140.92C165.625 140.893 165.665 140.8 165.745 140.64C165.852 140.48 165.945 140.307 166.025 140.12C166.132 139.907 166.225 139.693 166.305 139.48C166.412 139.24 166.465 139.04 166.465 138.88L166.225 139C166.278 138.893 166.332 138.827 166.385 138.8C166.465 138.773 166.532 138.747 166.585 138.72C166.638 138.667 166.678 138.613 166.705 138.56C166.758 138.507 166.785 138.413 166.785 138.28C166.758 138.36 166.718 138.427 166.665 138.48L166.465 138.56C166.465 138.507 166.492 138.427 166.545 138.32C166.625 138.187 166.665 138.093 166.665 138.04C167.198 137.453 167.518 136.947 167.625 136.52C167.758 136.093 167.825 135.787 167.825 135.6L167.625 135.72V135.48C167.838 135 167.998 134.547 168.105 134.12C168.212 133.667 168.332 133.28 168.465 132.96C168.598 132.613 168.772 132.347 168.985 132.16C169.225 131.973 169.585 131.88 170.065 131.88L170.185 132C170.238 132.053 170.372 132.107 170.585 132.16C170.798 132.213 170.905 132.267 170.905 132.32C170.932 132.293 170.958 132.28 170.985 132.28C171.065 132.28 171.172 132.32 171.305 132.4C171.438 132.48 171.572 132.573 171.705 132.68C171.838 132.76 171.958 132.867 172.065 133C172.198 133.107 172.278 133.2 172.305 133.28V134.56C172.118 134.613 172.025 134.667 172.025 134.72C172.025 134.747 172.038 134.76 172.065 134.76C172.065 134.813 172.025 134.947 171.945 135.16C171.865 135.347 171.772 135.573 171.665 135.84C171.558 136.08 171.452 136.32 171.345 136.56C171.238 136.8 171.172 136.973 171.145 137.08L171.225 137.2C171.012 137.493 170.892 137.76 170.865 138C170.865 138.24 170.812 138.427 170.705 138.56H171.025V138.8C171.238 138.933 171.452 139.053 171.665 139.16C171.878 139.24 172.012 139.333 172.065 139.44C172.172 139.44 172.318 139.52 172.505 139.68C172.692 139.84 172.878 140.013 173.065 140.2C173.278 140.36 173.465 140.52 173.625 140.68C173.812 140.84 173.972 140.92 174.105 140.92C174.158 140.973 174.278 141.107 174.465 141.32C174.678 141.533 174.918 141.76 175.185 142C175.452 142.24 175.705 142.453 175.945 142.64C176.212 142.827 176.412 142.92 176.545 142.92L176.425 143.28C176.425 143.333 176.332 143.427 176.145 143.56C175.958 143.667 175.945 143.747 176.105 143.8C176.105 143.827 176.052 143.853 175.945 143.88C175.865 143.907 175.612 143.92 175.185 143.92C174.545 143.92 173.985 143.76 173.505 143.44C173.052 143.093 172.505 142.6 171.865 141.96C171.625 141.8 171.332 141.64 170.985 141.48C170.665 141.32 170.398 141.093 170.185 140.8C169.945 140.987 169.758 141.173 169.625 141.36C169.518 141.52 169.425 141.68 169.345 141.84C169.292 141.973 169.238 142.107 169.185 142.24C169.132 142.347 169.038 142.44 168.905 142.52C168.905 142.52 168.932 142.627 168.985 142.84C168.932 142.867 168.865 142.947 168.785 143.08C168.732 143.187 168.598 143.387 168.385 143.68L168.465 143.88C168.465 144.013 168.452 144.093 168.425 144.12C168.398 144.147 168.385 144.213 168.385 144.32L168.465 144.44C168.412 144.493 168.292 144.667 168.105 144.96C167.918 145.253 167.825 145.493 167.825 145.68L167.945 145.8C167.918 145.96 167.878 146.147 167.825 146.36C167.772 146.547 167.745 146.72 167.745 146.88L167.825 146.96C167.745 147.093 167.705 147.173 167.705 147.2C167.732 147.253 167.745 147.28 167.745 147.28C167.692 147.387 167.652 147.467 167.625 147.52C167.598 147.547 167.585 147.587 167.585 147.64C167.585 147.72 167.598 147.787 167.625 147.84C167.625 148.053 167.612 148.187 167.585 148.24C167.585 148.293 167.558 148.36 167.505 148.44L167.425 149L167.745 149.2C167.665 149.2 167.558 149.267 167.425 149.4C167.585 149.4 167.692 149.467 167.745 149.6C167.825 149.733 167.865 149.813 167.865 149.84C167.865 149.92 167.812 149.96 167.705 149.96C167.625 149.987 167.532 150 167.425 150C167.318 150.027 167.212 150.067 167.105 150.12C167.025 150.2 166.985 150.32 166.985 150.48C166.878 150.48 166.825 150.453 166.825 150.4C166.852 150.373 166.838 150.333 166.785 150.28L166.545 150.36ZM173.505 137.76V137.24L174.985 136.76L175.265 136.88L176.305 136.92C176.412 136.92 176.492 136.933 176.545 136.96C176.598 136.96 176.665 136.96 176.745 136.96C177.038 136.96 177.358 136.88 177.705 136.72C178.078 136.56 178.412 136.467 178.705 136.44L179.505 135.52C179.505 135.387 179.545 135.227 179.625 135.04C179.732 134.827 179.785 134.653 179.785 134.52L179.905 133.84C179.958 133.547 180.025 133.12 180.105 132.56C180.212 131.973 180.278 131.413 180.305 130.88L180.585 130.6H182.145C182.465 130.707 182.758 130.84 183.025 131C183.318 131.16 183.545 131.293 183.705 131.4L184.465 131.92C184.465 132 184.438 132.16 184.385 132.4C184.332 132.613 184.265 132.853 184.185 133.12C184.132 133.36 184.078 133.6 184.025 133.84C183.972 134.053 183.945 134.2 183.945 134.28C183.945 134.333 183.932 134.467 183.905 134.68C183.878 134.867 183.852 135.08 183.825 135.32C183.798 135.56 183.772 135.787 183.745 136C183.718 136.187 183.705 136.307 183.705 136.36L183.425 136.64L183.305 136.92C183.305 136.92 183.278 137.013 183.225 137.2C183.198 137.36 183.158 137.56 183.105 137.8C183.052 138.04 182.998 138.293 182.945 138.56C182.918 138.827 182.905 139.053 182.905 139.24C182.905 139.453 182.878 139.733 182.825 140.08C182.772 140.4 182.705 140.72 182.625 141.04C182.572 141.36 182.518 141.653 182.465 141.92C182.412 142.16 182.385 142.32 182.385 142.4L182.145 143.44L182.385 143.68C182.385 143.733 182.372 143.787 182.345 143.84C182.318 143.893 182.292 143.947 182.265 144L182.145 144.2V144.48C182.145 144.64 182.185 144.8 182.265 144.96L182.385 145.24L182.665 145.52C182.665 145.653 182.558 145.827 182.345 146.04C182.158 146.227 181.998 146.32 181.865 146.32H181.625L180.825 147.08H180.585L180.105 146.72L179.265 146.56L178.985 146.04C178.932 145.88 178.878 145.693 178.825 145.48C178.772 145.267 178.745 145.013 178.745 144.72C178.745 144.533 178.825 144.36 178.985 144.2V143V138.92L178.385 138.96L176.625 139.2L176.065 139.4L175.065 139.52L174.305 138.96L173.505 137.76ZM166.025 147.2V147.4C166.025 147.507 166.038 147.56 166.065 147.56C166.065 147.56 166.105 147.48 166.185 147.32C166.292 147.133 166.398 146.92 166.505 146.68C166.638 146.413 166.745 146.147 166.825 145.88C166.932 145.613 166.985 145.387 166.985 145.2C166.985 145.067 166.945 144.973 166.865 144.92C166.812 144.84 166.745 144.747 166.665 144.64L166.545 144.84C166.545 144.947 166.545 145.027 166.545 145.08C166.545 145.107 166.545 145.133 166.545 145.16C166.572 145.187 166.598 145.227 166.625 145.28C166.652 145.307 166.705 145.373 166.785 145.48L166.545 145.68C166.492 145.707 166.465 145.76 166.465 145.84C166.492 145.893 166.492 145.973 166.465 146.08C166.465 146.187 166.438 146.307 166.385 146.44C166.332 146.547 166.212 146.653 166.025 146.76C166.105 146.84 166.145 146.947 166.145 147.08L166.025 147.2ZM164.985 143.16V143.24C164.985 143.32 164.958 143.413 164.905 143.52C164.852 143.627 164.825 143.707 164.825 143.76C164.825 143.787 164.838 143.8 164.865 143.8C164.865 143.853 164.825 143.92 164.745 144C164.665 144.08 164.598 144.12 164.545 144.12C164.678 143.827 164.745 143.6 164.745 143.44C164.745 143.253 164.785 143.16 164.865 143.16H164.985ZM189.705 138.44C189.572 138.44 189.505 138.533 189.505 138.72C189.505 138.907 189.572 139 189.705 139C189.838 139 189.905 138.907 189.905 138.72C189.905 138.533 189.838 138.44 189.705 138.44ZM188.665 142.92C188.532 142.92 188.465 143.013 188.465 143.2C188.465 143.36 188.532 143.44 188.665 143.44C188.798 143.44 188.865 143.36 188.865 143.2C188.865 143.013 188.798 142.92 188.665 142.92ZM182.145 142.12C182.012 142.12 181.945 142.213 181.945 142.4C181.945 142.56 182.012 142.64 182.145 142.64C182.278 142.64 182.345 142.56 182.345 142.4C182.345 142.213 182.278 142.12 182.145 142.12ZM188.145 148.4C188.012 148.4 187.945 148.493 187.945 148.68C187.945 148.84 188.012 148.92 188.145 148.92C188.278 148.92 188.345 148.84 188.345 148.68C188.345 148.493 188.278 148.4 188.145 148.4ZM187.865 149.44C187.732 149.44 187.665 149.533 187.665 149.72C187.665 149.88 187.732 149.96 187.865 149.96C187.998 149.96 188.065 149.88 188.065 149.72C188.065 149.533 187.998 149.44 187.865 149.44ZM182.385 140.28C182.252 140.28 182.185 140.373 182.185 140.56C182.185 140.72 182.252 140.8 182.385 140.8C182.518 140.8 182.585 140.72 182.585 140.56C182.585 140.373 182.518 140.28 182.385 140.28ZM178.465 143.68C178.598 143.68 178.665 143.773 178.665 143.96C178.665 144.12 178.598 144.2 178.465 144.2C178.332 144.2 178.265 144.12 178.265 143.96C178.265 143.773 178.332 143.68 178.465 143.68ZM190.505 133.24C190.372 133.24 190.305 133.333 190.305 133.52C190.305 133.68 190.372 133.76 190.505 133.76C190.638 133.76 190.705 133.68 190.705 133.52C190.705 133.333 190.638 133.24 190.505 133.24ZM191.265 131.92C191.132 131.92 191.065 132.013 191.065 132.2C191.065 132.36 191.132 132.44 191.265 132.44C191.398 132.44 191.465 132.36 191.465 132.2C191.465 132.013 191.398 131.92 191.265 131.92ZM188.385 145V144.76L188.145 145V145.24L188.385 145ZM164.865 147.92C164.865 147.947 164.852 147.96 164.825 147.96C164.825 147.96 164.825 147.973 164.825 148C164.825 148.027 164.878 148.067 164.985 148.12L165.065 147.92H164.865ZM165.625 147.72C165.652 147.667 165.665 147.627 165.665 147.6C165.692 147.547 165.705 147.48 165.705 147.4L165.505 147.6L165.625 147.72ZM189.185 141.84V141.6H188.945L189.185 141.84ZM165.305 141.76C165.332 141.76 165.345 141.8 165.345 141.88C165.345 141.933 165.332 141.96 165.305 141.96C165.252 141.96 165.225 141.933 165.225 141.88C165.225 141.8 165.252 141.76 165.305 141.76ZM165.385 143.48C165.385 143.533 165.372 143.573 165.345 143.6C165.345 143.6 165.332 143.627 165.305 143.68V143.36L165.385 143.48ZM165.385 144.32C165.412 144.373 165.438 144.4 165.465 144.4C165.492 144.4 165.505 144.427 165.505 144.48V144.52H165.385V144.32ZM165.065 144.84L164.985 145.04V144.72L165.065 144.84ZM165.385 142.52C165.358 142.467 165.345 142.44 165.345 142.44C165.318 142.44 165.305 142.467 165.305 142.52C165.305 142.573 165.318 142.6 165.345 142.6C165.372 142.573 165.385 142.547 165.385 142.52ZM164.105 148.12L164.025 148.24V148.12H164.105ZM165.825 143.36H165.905V143.24L165.825 143.36ZM203.3 137.92C203.22 137.947 203.114 137.96 202.98 137.96H201.9C201.82 137.96 201.7 137.947 201.54 137.92C201.38 137.893 201.22 137.853 201.06 137.8L200.86 138.24V139.04C200.86 139.147 200.847 139.253 200.82 139.36C200.82 139.467 200.807 139.587 200.78 139.72L200.54 141.6L200.34 142.2C200.34 142.333 200.314 142.627 200.26 143.08C200.234 143.533 200.22 143.827 200.22 143.96V144.16C200.22 144.267 200.287 144.48 200.42 144.8C200.58 145.093 200.66 145.293 200.66 145.4V146L200.22 146.2L199.78 146.08C199.647 146.027 199.514 145.987 199.38 145.96C199.247 145.907 199.127 145.853 199.02 145.8L198.62 145.6C198.487 145.493 198.274 145.333 197.98 145.12C197.714 144.88 197.58 144.693 197.58 144.56L197.46 144.32C197.434 144.24 197.38 144.04 197.3 143.72C197.22 143.373 197.18 143.04 197.18 142.72V142.32C197.18 141.707 197.234 141.093 197.34 140.48C197.447 139.84 197.607 139.253 197.82 138.72L197.74 138.32V136.4L198.3 136.04L198.1 135.8L197.82 135.24V133.88C197.82 133.8 197.834 133.68 197.86 133.52C197.887 133.333 197.914 133.133 197.94 132.92C197.994 132.707 198.034 132.52 198.06 132.36C198.087 132.173 198.1 132.04 198.1 131.96C198.1 131.907 198.127 131.773 198.18 131.56C198.234 131.347 198.287 131.12 198.34 130.88C198.42 130.64 198.487 130.427 198.54 130.24C198.594 130.027 198.62 129.88 198.62 129.8C198.62 129.427 198.727 129.067 198.94 128.72C199.154 128.347 199.407 128.16 199.7 128.16C199.834 128.16 200.06 128.213 200.38 128.32C200.7 128.4 200.927 128.44 201.06 128.44L201.62 128.72L202.7 130.08L203.02 130.24C203.18 130.32 203.34 130.36 203.5 130.36H203.78C204.02 130.36 204.314 130.413 204.66 130.52C205.007 130.6 205.247 130.68 205.38 130.76L205.7 130.88C205.727 130.88 205.86 130.947 206.1 131.08C206.34 131.187 206.58 131.333 206.82 131.52C207.087 131.68 207.327 131.853 207.54 132.04C207.754 132.227 207.86 132.387 207.86 132.52L207.98 132.96C208.087 133.2 208.14 133.413 208.14 133.6V133.88C207.98 134.04 207.754 134.32 207.46 134.72C207.167 135.093 206.94 135.36 206.78 135.52L206.5 136.04C206.5 136.12 206.46 136.213 206.38 136.32C206.3 136.4 206.207 136.48 206.1 136.56L205.7 136.88C205.62 136.933 205.514 137.013 205.38 137.12C205.274 137.2 205.154 137.28 205.02 137.36L205.38 137.44C205.487 137.44 205.607 137.56 205.74 137.8C205.9 138.04 206.047 138.187 206.18 138.24L207.42 139.48V140.28L207.62 140.48V141.32C207.62 141.373 207.594 141.48 207.54 141.64C207.487 141.773 207.42 141.933 207.34 142.12C207.287 142.28 207.22 142.44 207.14 142.6C207.087 142.733 207.034 142.827 206.98 142.88C207.06 142.88 207.114 142.933 207.14 143.04L207.22 143.16V143.36L206.98 143.56V145.8L206.66 146.04C206.474 146.147 206.38 146.267 206.38 146.4L206.18 146.84L206.58 146.6H206.78C206.727 146.653 206.66 146.773 206.58 146.96C206.527 147.12 206.46 147.307 206.38 147.52C206.3 147.733 206.22 147.933 206.14 148.12C206.087 148.28 206.034 148.387 205.98 148.44V148.88C205.98 148.987 205.914 149.12 205.78 149.28C205.647 149.44 205.58 149.573 205.58 149.68C205.687 149.68 205.82 149.707 205.98 149.76C206.14 149.84 206.274 149.88 206.38 149.88C206.727 149.88 207.18 149.893 207.74 149.92C208.327 149.973 208.874 150.027 209.38 150.08C209.887 150.133 210.3 150.173 210.62 150.2C210.967 150.227 211.087 150.227 210.98 150.2L211.3 150.28C211.354 150.387 211.394 150.507 211.42 150.64C211.474 150.8 211.5 150.893 211.5 150.92V151.12C211.5 151.173 211.487 151.24 211.46 151.32C211.434 151.427 211.407 151.52 211.38 151.6L211.3 151.92L210.86 152.04C210.727 152.067 210.607 152.08 210.5 152.08C210.394 152.107 210.314 152.12 210.26 152.12H202.9L202.3 152.76H198.38C198.327 152.76 198.194 152.773 197.98 152.8C197.767 152.853 197.527 152.907 197.26 152.96C196.994 153.013 196.74 153.053 196.5 153.08C196.287 153.133 196.167 153.16 196.14 153.16H195.94C195.914 153.16 195.86 153.147 195.78 153.12C195.7 153.12 195.594 153.107 195.46 153.08L194.7 152.76L194.5 152.32L194.1 152.12L193.46 151.52L193.26 151.12V150.92L193.46 150.72H194.1L194.7 150.28C194.807 150.28 195.047 150.24 195.42 150.16C195.794 150.107 196.034 150.08 196.14 150.08C196.194 150.08 196.34 150.04 196.58 149.96C196.82 149.88 197.074 149.787 197.34 149.68C197.634 149.573 197.9 149.48 198.14 149.4C198.407 149.32 198.567 149.28 198.62 149.28L199.42 149.08C199.527 148.973 199.727 148.8 200.02 148.56C200.34 148.32 200.554 148.147 200.66 148.04V148.24C200.66 148.427 200.514 148.64 200.22 148.88H200.46C200.567 148.88 200.687 148.813 200.82 148.68L201.06 148.44L201.26 148.04L201.66 147.64V147.24L202.1 146.84V146.4L202.5 146V145.4L201.86 144.56H202.5V143.96L202.1 144.16V143.76L202.3 143.56V143.36L202.7 142.72L202.9 142.32H203.1V142.96L202.9 143.36H203.3L203.38 142.92C203.38 142.84 203.394 142.72 203.42 142.56C203.474 142.373 203.514 142.16 203.54 141.92C203.594 141.68 203.634 141.44 203.66 141.2C203.714 140.933 203.74 140.693 203.74 140.48H203.5L203.3 140.68C203.3 140.413 203.287 140.12 203.26 139.8C203.26 139.48 203.26 139.173 203.26 138.88C203.26 138.72 203.26 138.573 203.26 138.44C203.287 138.307 203.3 138.173 203.3 138.04V137.92ZM201.62 132.24C201.434 132.427 201.354 132.587 201.38 132.72C201.407 132.853 201.34 133.053 201.18 133.32L201.06 133.6V135.52H201.62C201.727 135.52 201.86 135.48 202.02 135.4C202.207 135.293 202.38 135.187 202.54 135.08C202.7 134.973 202.834 134.88 202.94 134.8C203.047 134.72 203.1 134.68 203.1 134.68C203.207 134.6 203.3 134.52 203.38 134.44C203.46 134.333 203.5 134.24 203.5 134.16V133.88L202.86 133.08C202.807 132.973 202.74 132.88 202.66 132.8C202.58 132.72 202.5 132.627 202.42 132.52L201.62 132.24ZM201.46 146.6C201.354 146.733 201.22 146.92 201.06 147.16C200.9 147.373 200.767 147.533 200.66 147.64L200.46 147.84V147.64C200.46 147.613 200.487 147.493 200.54 147.28L200.66 147.04L201.06 146.84L201.26 146.6H201.46ZM201.86 145.4V145.6L201.66 146L201.46 145.4H201.86ZM202.9 144.16C202.82 144.24 202.767 144.36 202.74 144.52C202.714 144.653 202.7 144.747 202.7 144.8V145L202.9 144.56V144.16ZM203.1 141.32L202.9 141.52V141.12L203.1 141.32ZM202.9 141.92H202.7L203.1 141.72L202.9 141.92ZM221.111 133.96C220.977 134.44 220.791 134.68 220.551 134.68V134.76L220.791 134.84C220.711 134.893 220.617 135.027 220.511 135.24C220.431 135.453 220.391 135.587 220.391 135.64V136.28C220.364 136.307 220.351 136.36 220.351 136.44C220.351 136.547 220.391 136.6 220.471 136.6V136.96C220.471 137.387 220.377 137.773 220.191 138.12L219.511 140.08C219.457 140.293 219.391 140.533 219.311 140.8C219.257 141.04 219.231 141.293 219.231 141.56C219.231 141.64 219.284 141.68 219.391 141.68V141.84C219.391 141.973 219.351 142.107 219.271 142.24C219.217 142.347 219.177 142.48 219.151 142.64L219.231 142.8L219.151 142.88C219.151 142.987 219.177 143.093 219.231 143.2C219.284 143.307 219.311 143.413 219.311 143.52C219.311 143.6 219.257 143.693 219.151 143.8C219.044 143.907 218.951 143.96 218.871 143.96H217.911L217.631 143.68C217.417 143.6 217.151 143.547 216.831 143.52C216.511 143.467 216.204 143.387 215.911 143.28C215.644 143.173 215.404 143.013 215.191 142.8C215.004 142.587 214.911 142.267 214.911 141.84C214.911 141.76 214.937 141.72 214.991 141.72L215.071 141.8C215.204 141.8 215.311 141.653 215.391 141.36C215.471 141.067 215.524 140.72 215.551 140.32C215.604 139.92 215.644 139.507 215.671 139.08C215.697 138.653 215.724 138.32 215.751 138.08L216.151 137.28V137.2C216.151 137.147 216.137 137.12 216.111 137.12C216.084 137.12 216.071 137.093 216.071 137.04L216.511 135.52V135.44C216.511 135.333 216.484 135.28 216.431 135.28V134.8C216.431 134.667 216.524 134.6 216.711 134.6C216.924 134.573 217.031 134.493 217.031 134.36L216.951 134.28C217.111 134.067 217.191 133.853 217.191 133.64C217.191 133.427 217.364 133.32 217.711 133.32V133.16L217.631 133.04L217.751 132.88C217.857 132.747 217.911 132.6 217.911 132.44V132.2C217.857 132.413 217.764 132.547 217.631 132.6C217.524 132.627 217.471 132.627 217.471 132.6L217.511 132.56C217.511 132.533 217.511 132.507 217.511 132.48C217.537 132.453 217.551 132.413 217.551 132.36L217.751 131.84C217.751 131.84 217.777 131.747 217.831 131.56C217.911 131.373 218.004 131.16 218.111 130.92C218.217 130.68 218.311 130.453 218.391 130.24C218.471 130 218.511 129.853 218.511 129.8C218.511 129.48 218.524 129.187 218.551 128.92C218.577 128.653 218.737 128.493 219.031 128.44C219.057 128.467 219.191 128.493 219.431 128.52C219.671 128.52 219.791 128.56 219.791 128.64L221.991 128.68C222.231 128.813 222.351 128.96 222.351 129.12C222.351 129.253 222.337 129.44 222.311 129.68C222.284 129.893 222.244 130.133 222.191 130.4C222.164 130.667 222.111 130.92 222.031 131.16C221.951 131.4 221.871 131.6 221.791 131.76H221.871C221.684 132.32 221.537 132.747 221.431 133.04C221.351 133.307 221.284 133.507 221.231 133.64C221.204 133.747 221.177 133.813 221.151 133.84C221.151 133.867 221.137 133.907 221.111 133.96ZM214.591 148.16L214.951 146.4C214.951 146.293 214.964 146.187 214.991 146.08C215.044 145.947 215.137 145.88 215.271 145.88C215.324 145.88 215.404 145.893 215.511 145.92C215.644 145.92 215.737 145.96 215.791 146.04H215.991C216.177 146.04 216.391 146.08 216.631 146.16C216.871 146.213 217.097 146.293 217.311 146.4C217.551 146.48 217.751 146.6 217.911 146.76C218.097 146.893 218.217 147.04 218.271 147.2C218.271 147.253 218.244 147.373 218.191 147.56C218.137 147.747 218.111 147.88 218.111 147.96V148.16L218.631 148.68V148.76C218.631 149.08 218.417 149.373 217.991 149.64C217.591 149.933 217.217 150.08 216.871 150.08C216.017 150.08 215.257 149.84 214.591 149.36V148.16Z" fill="white"/>
<path fill-rule="evenodd" clip-rule="evenodd" d="M84.9301 42.2785C91.8457 39.6709 99.5575 42.7341 102.705 49.0826L103.621 48.7655C103.79 48.7071 103.938 48.6009 104.046 48.4606C104.154 48.3202 104.217 48.1523 104.227 47.9784C104.237 47.8045 104.193 47.6327 104.101 47.4852C104.01 47.3377 103.874 47.2213 103.713 47.151L103.457 47.0396C103.036 46.8485 102.712 46.5022 102.555 46.0755C102.398 45.6487 102.42 45.1755 102.617 44.7581C102.813 44.3407 103.168 44.0124 103.606 43.8441C104.043 43.6757 104.527 43.6808 104.954 43.8582L105.21 43.9696C108.862 45.5562 108.571 50.7211 104.755 52.0415L103.798 52.3726C104.169 54.7387 103.576 56.9539 102.503 59.0825L104.535 64.9565C104.686 65.3909 104.652 65.8691 104.442 66.2858C104.231 66.7025 103.862 67.0236 103.414 67.1785L98.3513 68.9304C97.997 69.0531 97.6142 69.0644 97.2571 68.9628C96.9001 68.8612 96.5869 68.6517 96.362 68.3642L95.1181 66.7734C94.7189 66.2632 94.1632 65.8915 93.5297 65.7111C92.8961 65.5307 92.2168 65.5507 91.588 65.7683C90.9592 65.9859 90.4127 66.39 90.0262 66.9234C89.6396 67.4568 89.4324 68.0924 89.434 68.7402L89.4392 70.7596C89.4402 71.1247 89.3234 71.4829 89.1055 71.7835C88.8877 72.084 88.5797 72.3117 88.2253 72.4342L83.1623 74.1862C82.7147 74.341 82.2257 74.317 81.803 74.1193C81.3802 73.9217 81.0582 73.5665 80.9079 73.1321L79.2075 68.2181C78.9082 67.3532 77.8517 66.4679 76.0009 65.9198C74.215 65.3896 72.1441 65.3248 70.5741 65.692C70.1451 65.7924 69.6962 65.735 69.3136 65.5308C68.9311 65.3266 68.642 64.9901 68.502 64.5858L66.2348 58.0338C66.1297 57.7296 66.114 57.4013 66.1893 57.0856C66.2647 56.7699 66.4281 56.4794 66.6614 56.2464L68.9318 53.977C69.005 50.5952 71.2109 47.9317 73.5892 46.52L71.8264 41.4258C71.6957 41.0469 71.7042 40.633 71.8507 40.2546C71.9971 39.8762 72.2723 39.5567 72.6295 39.3504L73.1707 39.1668C73.6635 38.9963 74.1591 38.8285 74.6667 38.7115C78.223 37.8973 82.6921 39.5955 84.9295 42.2768L84.9301 42.2785ZM77.4689 46.8099L75.8139 42.0269C78.0864 41.8715 81.5483 42.8599 82.5455 45.0973C82.6316 45.3196 82.7636 45.5215 82.9334 45.6907C83.1032 45.8599 83.3073 45.9928 83.533 46.0813C83.7588 46.1697 84.0015 46.2119 84.2464 46.2051C84.4912 46.1984 84.733 46.1429 84.9568 46.042L85.4135 45.8327C91.1596 43.1768 97.9774 46.0046 100.001 51.8523C100.576 53.5149 100.449 55.3473 99.6433 56.9411C99.5698 57.0848 99.4937 57.2273 99.4151 57.3685C99.0344 58.0597 98.6268 58.8041 98.8927 59.5724L100.593 64.4864L98.4328 65.2339L97.9608 64.6287C97.1118 63.5442 95.9301 62.7544 94.583 62.3712C93.2358 61.9879 91.7916 62.0306 90.4547 62.4932C89.1178 62.9558 87.956 63.8149 87.1339 64.9487C86.3117 66.0826 85.8709 67.4339 85.8737 68.8112L85.8749 69.5792L83.7164 70.3261L82.5828 67.0501C81.7485 64.6389 79.3576 63.2616 77.0916 62.5894C75.2555 62.0542 73.3245 61.8711 71.404 62.0501L69.9604 57.8781L71.9921 55.8472C72.1733 55.6661 72.313 55.4496 72.4016 55.2126C72.4901 54.9755 72.5255 54.7235 72.5052 54.4738C72.2988 51.9113 74.3667 49.7175 76.3481 49.0319C76.7957 48.877 77.1652 48.5559 77.3754 48.1392C77.5856 47.7225 77.6193 47.2443 77.4689 46.8099ZM80.0259 56.93C80.6973 56.6977 81.2516 56.216 81.5669 55.591C81.8822 54.9659 81.9327 54.2487 81.7072 53.597C81.4817 52.9454 80.9987 52.4127 80.3645 52.1162C79.7304 51.8197 78.9969 51.7836 78.3255 52.0159C77.6541 52.2483 77.0998 52.7299 76.7845 53.355C76.4692 53.98 76.4187 54.6973 76.6442 55.3489C76.8697 56.0006 77.3526 56.5332 77.9868 56.8298C78.621 57.1263 79.3545 57.1623 80.0259 56.93Z" fill="white"/>
<rect x="16.5" y="13.5" width="294" height="206" rx="29.5" stroke="white"/>
</svg>
