<svg width="141" height="61" viewBox="0 0 141 61" fill="none" xmlns="http://www.w3.org/2000/svg">
<g filter="url(#filter0_d_101_24)">
<ellipse cx="70.5" cy="26.5" rx="66.5" ry="26.5" fill="#005703"/>
</g>
<path d="M52.904 13.792C53.2133 13.792 53.4907 14.2667 53.736 15.216C53.992 16.1653 54.12 17.1307 54.12 18.112C54.12 19.0827 53.9013 20.112 53.464 21.2C53.0267 22.2773 52.4507 23.2427 51.736 24.096C51.0213 24.9387 50.2267 25.6907 49.352 26.352C48.488 27.0027 47.5973 27.504 46.68 27.856C45.7627 28.208 44.904 28.384 44.104 28.384C43.3147 28.384 42.568 28.224 41.864 27.904C41.1707 27.5733 40.5947 27.072 40.136 26.4C39.688 25.7173 39.464 24.896 39.464 23.936C39.464 22.976 39.72 21.888 40.232 20.672C41.384 17.9733 43.112 16.0213 45.416 14.816C46.6747 14.1547 47.9653 13.824 49.288 13.824C49.864 13.824 50.456 14.0107 51.064 14.384C51.672 14.7467 51.976 15.136 51.976 15.552C51.976 15.616 51.928 15.7227 51.832 15.872C51.736 16.0213 51.6667 16.1333 51.624 16.208C51.6027 16.2827 51.56 16.384 51.496 16.512C51.3787 16.7467 51.2933 16.864 51.24 16.864C51.1333 16.864 51.08 16.8107 51.08 16.704C51.08 16.2667 50.9947 15.888 50.824 15.568C50.6533 15.2373 50.4347 14.992 50.168 14.832C49.656 14.5227 49.1387 14.368 48.616 14.368C46.2267 14.368 44.2533 15.5307 42.696 17.856C41.416 19.7547 40.776 21.504 40.776 23.104C40.776 24.384 41.1227 25.424 41.816 26.224C42.5093 27.024 43.4213 27.424 44.552 27.424C45.9173 27.424 47.2613 27.0027 48.584 26.16C49.9173 25.3173 51.0053 24.2027 51.848 22.816C52.7013 21.4187 53.128 19.9787 53.128 18.496C53.128 17.952 53.0747 17.4933 52.968 17.12C52.872 16.736 52.7867 16.4267 52.712 16.192C52.6373 15.9573 52.5627 15.7493 52.488 15.568C52.4133 15.3867 52.344 15.232 52.28 15.104C52.216 14.9653 52.1467 14.816 52.072 14.656C52.072 14.592 52.1787 14.432 52.392 14.176C52.616 13.92 52.7867 13.792 52.904 13.792ZM54.7274 25.184L53.5434 27.392C54.386 27.2213 55.2287 26.912 56.0714 26.464C56.9247 26.0053 57.6394 25.5147 58.2154 24.992C58.802 24.4587 59.2767 23.9413 59.6394 23.44C60.0127 22.9387 60.1994 22.5387 60.1994 22.24C60.1994 21.6213 59.9647 21.312 59.4954 21.312C59.1007 21.312 58.386 21.744 57.3514 22.608C56.3167 23.4613 55.442 24.32 54.7274 25.184ZM54.8554 28.8C54.194 28.8 53.5647 28.6507 52.9674 28.352C51.8687 30.368 50.5994 32.8533 49.1594 35.808C47.7194 38.7627 46.45 41.216 45.3514 43.168C45.1807 43.4773 44.962 43.7547 44.6954 44C44.4287 44.2453 44.178 44.432 43.9434 44.56C43.698 44.6773 43.4527 44.7787 43.2074 44.864C42.834 44.992 42.5727 45.056 42.4234 45.056C42.2634 45.056 42.1834 45.024 42.1834 44.96C42.1834 44.9067 42.21 44.864 42.2634 44.832C42.306 44.8 42.4074 44.7413 42.5674 44.656C42.7167 44.5707 42.8927 44.448 43.0954 44.288C43.2874 44.1387 43.554 43.8293 43.8954 43.36C44.226 42.9013 45.1167 41.408 46.5674 38.88C48.018 36.3627 50.0127 32.7573 52.5514 28.064C52.4874 28 52.4554 27.952 52.4554 27.92C52.4554 27.8773 52.5034 27.8187 52.5994 27.744C52.6954 27.6587 52.7647 27.616 52.8074 27.616C54.066 25.3013 54.6954 23.776 54.6954 23.04C54.6954 22.304 54.5887 21.8987 54.3754 21.824C54.29 21.792 54.2474 21.76 54.2474 21.728C54.2474 21.6853 54.258 21.6533 54.2794 21.632C54.3114 21.6107 54.354 21.584 54.4074 21.552C54.4607 21.52 54.514 21.4827 54.5674 21.44C54.6207 21.3973 54.6794 21.3493 54.7434 21.296C54.818 21.232 54.866 21.184 54.8874 21.152C54.9407 21.088 55.0367 21.056 55.1754 21.056C55.346 21.056 55.4847 21.216 55.5914 21.536C55.698 21.8453 55.7514 22.192 55.7514 22.576C55.7514 22.96 55.6234 23.424 55.3674 23.968C56.5087 22.8373 57.5327 21.9787 58.4394 21.392C59.346 20.8053 60.0714 20.512 60.6154 20.512C61.17 20.512 61.4474 20.848 61.4474 21.52C61.4474 22.192 61.1007 22.9387 60.4074 23.76C59.714 24.5707 58.7754 25.344 57.5914 26.08C56.4074 26.816 55.186 27.3493 53.9274 27.68C54.5247 28 55.1647 28.16 55.8474 28.16C56.53 28.16 57.1807 28.0907 57.7994 27.952C58.418 27.8133 58.9834 27.6053 59.4954 27.328C60.7647 26.6453 61.858 25.808 62.7754 24.816C63.1167 24.4427 63.3194 24.2027 63.3834 24.096C63.458 23.9893 63.5167 23.936 63.5594 23.936C63.602 23.936 63.6234 23.952 63.6234 23.984C63.6234 24.016 63.6127 24.0533 63.5914 24.096C63.0474 24.832 62.4714 25.472 61.8634 26.016C59.794 27.872 57.458 28.8 54.8554 28.8ZM61.838 25.952L61.198 26.464C61.1767 26.464 61.166 26.4427 61.166 26.4C61.166 26.3573 61.2033 26.2987 61.278 26.224C61.3527 26.1493 61.5607 25.984 61.902 25.728C62.1473 24.96 62.5153 24.2347 63.006 23.552C63.4967 22.8693 63.998 22.32 64.51 21.904C65.022 21.4773 65.5073 21.1467 65.966 20.912C66.4247 20.6667 66.7873 20.544 67.054 20.544C67.6087 20.544 67.886 20.7573 67.886 21.184C67.886 21.344 67.8273 21.5093 67.71 21.68C67.5927 21.84 67.374 22.0427 67.054 22.288C66.7447 22.5333 66.446 22.7573 66.158 22.96C65.8807 23.152 65.4327 23.456 64.814 23.872C64.206 24.288 63.6833 24.6507 63.246 24.96C63.054 25.504 62.958 26.0107 62.958 26.48C62.958 26.9387 63.0807 27.28 63.326 27.504C63.582 27.728 64.0033 27.84 64.59 27.84C65.1873 27.84 65.87 27.632 66.638 27.216C67.4167 26.8 68.1527 26.2933 68.846 25.696C69.5393 25.088 70.0513 24.5333 70.382 24.032C70.4247 23.968 70.4673 23.936 70.51 23.936C70.5527 23.936 70.574 23.952 70.574 23.984C70.574 24.016 70.5633 24.0533 70.542 24.096C69.358 25.632 67.9287 26.8267 66.254 27.68C65.4433 28.064 64.654 28.256 63.886 28.256C62.4353 28.256 61.71 27.7547 61.71 26.752C61.71 26.6027 61.7527 26.336 61.838 25.952ZM63.374 24.672C64.6327 23.7653 65.5287 23.0667 66.062 22.576C66.5953 22.0747 66.862 21.6853 66.862 21.408C66.862 21.1307 66.7447 20.992 66.51 20.992C65.9873 20.992 65.4273 21.3707 64.83 22.128C64.2327 22.8747 63.7473 23.7227 63.374 24.672ZM71.1115 21.152C70.7382 21.152 70.3115 21.312 69.8315 21.632C69.7355 21.696 69.6715 21.728 69.6395 21.728C69.6182 21.728 69.6075 21.7067 69.6075 21.664C69.6075 21.6213 69.6395 21.5787 69.7035 21.536C70.4395 20.9813 71.1115 20.704 71.7195 20.704C71.9862 20.704 72.1942 20.7787 72.3435 20.928C72.5035 21.0773 72.5835 21.264 72.5835 21.488C72.5835 21.712 72.3702 22.208 71.9435 22.976C73.6608 21.504 74.9942 20.768 75.9435 20.768C76.2742 20.768 76.5088 20.8853 76.6475 21.12C76.7968 21.344 76.8715 21.632 76.8715 21.984C76.8715 22.3253 76.5088 23.1627 75.7835 24.496C75.0582 25.8293 74.6955 26.688 74.6955 27.072C74.6955 27.2427 74.7435 27.3867 74.8395 27.504C74.9355 27.6213 75.0582 27.68 75.2075 27.68C76.1568 27.68 77.3195 27.0827 78.6955 25.888C79.0582 25.568 79.4048 25.2267 79.7355 24.864C80.0768 24.5013 80.2848 24.256 80.3595 24.128C80.4448 24 80.5088 23.936 80.5515 23.936C80.5942 23.936 80.6155 23.952 80.6155 23.984C80.6155 24.016 80.6048 24.0533 80.5835 24.096C80.1995 24.608 79.6182 25.248 78.8395 26.016C78.0715 26.7733 77.2715 27.3493 76.4395 27.744C75.6182 28.128 74.9302 28.32 74.3755 28.32C73.8208 28.32 73.5435 28.0747 73.5435 27.584C73.5435 27.1467 73.7248 26.5653 74.0875 25.84C74.4502 25.104 74.8128 24.3947 75.1755 23.712C75.5382 23.0293 75.7195 22.5173 75.7195 22.176C75.7195 21.6427 75.5168 21.376 75.1115 21.376C74.7382 21.376 74.0875 21.712 73.1595 22.384C72.2422 23.0453 71.7408 23.456 71.6555 23.616L69.3195 27.872C69.2662 27.9573 69.1648 28.0107 69.0155 28.032C68.8768 28.064 68.7275 28.1067 68.5675 28.16C68.4182 28.224 68.3168 28.256 68.2635 28.256C68.1355 28.256 68.0715 28.2027 68.0715 28.096C68.0715 28.0533 68.3808 27.5093 68.9995 26.464C70.6635 23.6053 71.4955 21.9733 71.4955 21.568C71.4955 21.2907 71.3675 21.152 71.1115 21.152ZM79.8784 21.632C79.7824 21.696 79.7184 21.728 79.6864 21.728C79.665 21.728 79.6544 21.7067 79.6544 21.664C79.6544 21.6213 79.6864 21.5787 79.7504 21.536C80.433 21.0667 81.0197 20.832 81.5104 20.832C82.2357 20.832 82.5984 21.1627 82.5984 21.824C82.5984 22.0587 82.417 22.496 82.0544 23.136C81.6917 23.7653 81.329 24.4267 80.9664 25.12C80.6037 25.8133 80.4224 26.3573 80.4224 26.752C80.4224 27.3067 80.7957 27.584 81.5424 27.584C81.905 27.584 82.3797 27.4133 82.9664 27.072C83.5637 26.7307 84.0864 26.3733 84.5344 26C84.9824 25.6267 85.377 25.2533 85.7184 24.88C86.0597 24.5067 86.2677 24.256 86.3424 24.128C86.4277 24 86.4917 23.936 86.5344 23.936C86.577 23.936 86.5984 23.952 86.5984 23.984C86.5984 24.016 86.5877 24.0533 86.5664 24.096C86.0437 24.8 85.4677 25.4293 84.8384 25.984C84.1557 26.6347 83.409 27.1573 82.5984 27.552C81.7877 27.936 81.1424 28.128 80.6624 28.128C80.1824 28.128 79.809 28.0213 79.5424 27.808C79.2757 27.5947 79.1424 27.2747 79.1424 26.848C79.1424 26.4213 79.3397 25.8453 79.7344 25.12C80.129 24.3947 80.5237 23.7227 80.9184 23.104C81.313 22.4747 81.5104 22.0587 81.5104 21.856C81.5104 21.6427 81.4624 21.4773 81.3664 21.36C81.281 21.2427 81.169 21.184 81.0304 21.184C80.7104 21.184 80.3264 21.3333 79.8784 21.632ZM83.4624 17.344C83.4624 17.1093 83.569 16.864 83.7824 16.608C83.9744 16.352 84.1664 16.224 84.3584 16.224C84.5504 16.224 84.6944 16.2827 84.7904 16.4C84.8864 16.5067 84.9344 16.6613 84.9344 16.864C84.9344 17.0667 84.8384 17.296 84.6464 17.552C84.4544 17.7973 84.2304 17.92 83.9744 17.92C83.633 17.92 83.4624 17.728 83.4624 17.344ZM87.1428 21.152C86.7694 21.152 86.3428 21.312 85.8628 21.632C85.7668 21.696 85.7028 21.728 85.6708 21.728C85.6494 21.728 85.6388 21.7067 85.6388 21.664C85.6388 21.6213 85.6708 21.5787 85.7348 21.536C86.4708 20.9813 87.1428 20.704 87.7508 20.704C88.0174 20.704 88.2254 20.7787 88.3748 20.928C88.5348 21.0773 88.6148 21.264 88.6148 21.488C88.6148 21.712 88.4014 22.208 87.9748 22.976C89.6921 21.504 91.0254 20.768 91.9748 20.768C92.3054 20.768 92.5401 20.8853 92.6788 21.12C92.8281 21.344 92.9028 21.632 92.9028 21.984C92.9028 22.3253 92.5401 23.1627 91.8148 24.496C91.0894 25.8293 90.7268 26.688 90.7268 27.072C90.7268 27.2427 90.7748 27.3867 90.8708 27.504C90.9668 27.6213 91.0894 27.68 91.2388 27.68C92.1881 27.68 93.3508 27.0827 94.7268 25.888C95.0894 25.568 95.4361 25.2267 95.7668 24.864C96.1081 24.5013 96.3161 24.256 96.3908 24.128C96.4761 24 96.5401 23.936 96.5828 23.936C96.6254 23.936 96.6468 23.952 96.6468 23.984C96.6468 24.016 96.6361 24.0533 96.6148 24.096C96.2308 24.608 95.6494 25.248 94.8708 26.016C94.1028 26.7733 93.3028 27.3493 92.4708 27.744C91.6494 28.128 90.9614 28.32 90.4068 28.32C89.8521 28.32 89.5748 28.0747 89.5748 27.584C89.5748 27.1467 89.7561 26.5653 90.1188 25.84C90.4814 25.104 90.8441 24.3947 91.2068 23.712C91.5694 23.0293 91.7508 22.5173 91.7508 22.176C91.7508 21.6427 91.5481 21.376 91.1428 21.376C90.7694 21.376 90.1188 21.712 89.1908 22.384C88.2734 23.0453 87.7721 23.456 87.6868 23.616L85.3508 27.872C85.2974 27.9573 85.1961 28.0107 85.0468 28.032C84.9081 28.064 84.7588 28.1067 84.5988 28.16C84.4494 28.224 84.3481 28.256 84.2948 28.256C84.1668 28.256 84.1028 28.2027 84.1028 28.096C84.1028 28.0533 84.4121 27.5093 85.0308 26.464C86.6948 23.6053 87.5268 21.9733 87.5268 21.568C87.5268 21.2907 87.3988 21.152 87.1428 21.152ZM102.47 22.848C102.182 22.336 101.824 21.8987 101.398 21.536C100.971 21.1733 100.502 20.992 99.9896 20.992C99.4883 20.992 98.923 21.2747 98.2936 21.84C97.675 22.3947 97.131 23.1147 96.6616 24C96.203 24.8853 95.9736 25.728 95.9736 26.528C95.9736 26.7733 96.0643 26.992 96.2456 27.184C96.427 27.3653 96.6456 27.456 96.9016 27.456C98.0536 27.456 99.5363 26.5173 101.35 24.64C101.595 24.3947 101.968 23.7973 102.47 22.848ZM91.2216 42.688C90.443 43.4133 89.5576 43.9893 88.5656 44.416C87.5736 44.8427 86.6136 45.056 85.6856 45.056C84.7576 45.056 83.931 44.8853 83.2056 44.544C82.4803 44.2133 81.867 43.7013 81.3656 43.008C80.8643 42.3147 80.6136 41.5093 80.6136 40.592C80.6136 39.6747 80.8003 38.7893 81.1736 37.936C81.547 37.0933 82.0536 36.3413 82.6936 35.68C83.323 35.0187 84.059 34.3947 84.9016 33.808C85.7336 33.232 86.6083 32.72 87.5256 32.272C88.443 31.8347 89.371 31.4293 90.3096 31.056C91.7176 30.5013 93.3923 29.9307 95.3336 29.344C95.387 29.3013 95.483 29.28 95.6216 29.28C95.771 29.28 95.8456 29.3333 95.8456 29.44C95.8456 29.5467 95.7336 29.6373 95.5096 29.712C95.2856 29.7973 94.8056 29.9467 94.0696 30.16C93.3443 30.384 92.715 30.5813 92.1816 30.752C91.6376 30.9333 90.859 31.216 89.8456 31.6C88.8323 31.984 88.011 32.3413 87.3816 32.672C86.7523 33.0027 86.0376 33.4347 85.2376 33.968C84.4376 34.512 83.8136 35.0613 83.3656 35.616C82.907 36.1707 82.5176 36.8267 82.1976 37.584C81.867 38.3413 81.7016 39.136 81.7016 39.968C81.7016 41.2267 82.1603 42.288 83.0776 43.152C83.9843 44.016 85.051 44.448 86.2776 44.448C87.5043 44.448 88.7736 43.8613 90.0856 42.688C91.3976 41.5147 92.571 40 93.6056 38.144C96.0376 33.8027 98.5443 29.472 101.126 25.152C100.39 25.9413 99.5523 26.6133 98.6136 27.168C97.675 27.7227 96.8163 28 96.0376 28C95.1843 28 94.7576 27.4453 94.7576 26.336C94.7576 25.6 95.0296 24.7787 95.5736 23.872C96.1176 22.9653 96.8056 22.192 97.6376 21.552C98.4696 20.9013 99.2483 20.576 99.9736 20.576C101.062 20.576 101.926 21.28 102.566 22.688L102.662 22.496C102.779 22.2827 102.928 22.1547 103.11 22.112C103.195 22.0907 103.259 22.064 103.302 22.032C103.344 22 103.387 21.984 103.43 21.984C103.451 21.984 103.462 22.016 103.462 22.08C103.462 22.144 103.44 22.1973 103.398 22.24C103.355 22.2827 103.152 22.6133 102.79 23.232C102.854 23.36 102.886 23.4613 102.886 23.536C102.886 23.6107 102.864 23.648 102.822 23.648L102.694 23.392L94.8216 38.016C93.851 39.7973 92.651 41.3547 91.2216 42.688Z" fill="white"/>
<defs>
<filter id="filter0_d_101_24" x="0" y="0" width="141" height="61" filterUnits="userSpaceOnUse" color-interpolation-filters="sRGB">
<feFlood flood-opacity="0" result="BackgroundImageFix"/>
<feColorMatrix in="SourceAlpha" type="matrix" values="0 0 0 0 0 0 0 0 0 0 0 0 0 0 0 0 0 0 127 0" result="hardAlpha"/>
<feOffset dy="4"/>
<feGaussianBlur stdDeviation="2"/>
<feComposite in2="hardAlpha" operator="out"/>
<feColorMatrix type="matrix" values="0 0 0 0 0 0 0 0 0 0 0 0 0 0 0 0 0 0 0.25 0"/>
<feBlend mode="normal" in2="BackgroundImageFix" result="effect1_dropShadow_101_24"/>
<feBlend mode="normal" in="SourceGraphic" in2="effect1_dropShadow_101_24" result="shape"/>
</filter>
</defs>
</svg>
